<mxfile host="65bd71144e">
    <diagram id="0Igpdy63Mpz8m3hsufa8" name="第 1 页">
        <mxGraphModel dx="806" dy="324" grid="1" gridSize="10" guides="1" tooltips="1" connect="1" arrows="1" fold="1" page="1" pageScale="1" pageWidth="2339" pageHeight="3300" math="1" shadow="0">
            <root>
                <mxCell id="0"/>
                <mxCell id="1" parent="0"/>
                <mxCell id="2628" value="" style="rounded=0;whiteSpace=wrap;html=1;fillColor=none;" parent="1" vertex="1">
                    <mxGeometry x="380" y="2957.5" width="40" height="40" as="geometry"/>
                </mxCell>
                <mxCell id="2629" value="" style="rounded=0;whiteSpace=wrap;html=1;fillColor=none;" parent="1" vertex="1">
                    <mxGeometry x="460" y="2957.5" width="40" height="40" as="geometry"/>
                </mxCell>
                <mxCell id="2630" value="" style="rounded=0;whiteSpace=wrap;html=1;fillColor=none;" parent="1" vertex="1">
                    <mxGeometry x="400" y="3037.5" width="40" height="40" as="geometry"/>
                </mxCell>
                <mxCell id="2631" value="" style="rounded=0;whiteSpace=wrap;html=1;fillColor=none;" parent="1" vertex="1">
                    <mxGeometry x="440" y="3037.5" width="40" height="40" as="geometry"/>
                </mxCell>
                <mxCell id="2632" value="" style="rounded=0;whiteSpace=wrap;html=1;fillColor=none;" parent="1" vertex="1">
                    <mxGeometry x="480" y="3117.5" width="40" height="40" as="geometry"/>
                </mxCell>
                <mxCell id="2633" value="" style="rounded=0;whiteSpace=wrap;html=1;fillColor=none;" parent="1" vertex="1">
                    <mxGeometry x="520" y="3117.5" width="40" height="40" as="geometry"/>
                </mxCell>
                <mxCell id="2634" value="" style="rounded=0;whiteSpace=wrap;html=1;fillColor=none;" parent="1" vertex="1">
                    <mxGeometry x="560" y="3117.5" width="40" height="40" as="geometry"/>
                </mxCell>
                <mxCell id="2635" value="" style="rounded=0;whiteSpace=wrap;html=1;fillColor=none;" parent="1" vertex="1">
                    <mxGeometry x="600" y="3117.5" width="40" height="40" as="geometry"/>
                </mxCell>
                <mxCell id="2636" value="" style="rounded=0;whiteSpace=wrap;html=1;fillColor=none;" parent="1" vertex="1">
                    <mxGeometry x="320" y="3117.5" width="40" height="40" as="geometry"/>
                </mxCell>
                <mxCell id="2637" value="" style="rounded=0;whiteSpace=wrap;html=1;fillColor=none;" parent="1" vertex="1">
                    <mxGeometry x="360" y="3117.5" width="40" height="40" as="geometry"/>
                </mxCell>
                <mxCell id="2638" value="" style="rounded=0;whiteSpace=wrap;html=1;fillColor=none;" parent="1" vertex="1">
                    <mxGeometry x="400" y="3117.5" width="40" height="40" as="geometry"/>
                </mxCell>
                <mxCell id="2639" value="" style="rounded=0;whiteSpace=wrap;html=1;fillColor=none;" parent="1" vertex="1">
                    <mxGeometry x="440" y="3117.5" width="40" height="40" as="geometry"/>
                </mxCell>
                <mxCell id="2648" value="" style="rounded=0;whiteSpace=wrap;html=1;fillColor=none;" parent="1" vertex="1">
                    <mxGeometry x="640" y="3117.5" width="40" height="40" as="geometry"/>
                </mxCell>
                <mxCell id="2660" value="" style="endArrow=none;html=1;entryX=0;entryY=1;entryDx=0;entryDy=0;" parent="1" target="2628" edge="1">
                    <mxGeometry width="50" height="50" relative="1" as="geometry">
                        <mxPoint x="400" y="3037.5" as="sourcePoint"/>
                        <mxPoint x="450" y="2987.5" as="targetPoint"/>
                    </mxGeometry>
                </mxCell>
                <mxCell id="2663" value="" style="endArrow=none;html=1;entryX=0;entryY=1;entryDx=0;entryDy=0;" parent="1" edge="1">
                    <mxGeometry width="50" height="50" relative="1" as="geometry">
                        <mxPoint x="440" y="3037.5" as="sourcePoint"/>
                        <mxPoint x="420" y="2997.5" as="targetPoint"/>
                    </mxGeometry>
                </mxCell>
                <mxCell id="2664" value="" style="endArrow=none;html=1;entryX=0;entryY=1;entryDx=0;entryDy=0;exitX=0;exitY=0;exitDx=0;exitDy=0;" parent="1" source="2631" edge="1">
                    <mxGeometry width="50" height="50" relative="1" as="geometry">
                        <mxPoint x="480" y="3037.5" as="sourcePoint"/>
                        <mxPoint x="460" y="2997.5" as="targetPoint"/>
                    </mxGeometry>
                </mxCell>
                <mxCell id="2666" value="" style="endArrow=none;html=1;entryX=0;entryY=1;entryDx=0;entryDy=0;exitX=0;exitY=0;exitDx=0;exitDy=0;" parent="1" edge="1">
                    <mxGeometry width="50" height="50" relative="1" as="geometry">
                        <mxPoint x="480" y="3037.5" as="sourcePoint"/>
                        <mxPoint x="500" y="2997.5" as="targetPoint"/>
                    </mxGeometry>
                </mxCell>
                <mxCell id="2667" value="split" style="text;html=1;align=center;verticalAlign=middle;resizable=0;points=[];autosize=1;strokeColor=none;fillColor=none;" parent="1" vertex="1">
                    <mxGeometry x="180" y="3010" width="40" height="20" as="geometry"/>
                </mxCell>
                <mxCell id="2668" value="" style="endArrow=classic;html=1;" parent="1" edge="1">
                    <mxGeometry width="50" height="50" relative="1" as="geometry">
                        <mxPoint x="400" y="2957.5" as="sourcePoint"/>
                        <mxPoint x="400" y="2917.5" as="targetPoint"/>
                    </mxGeometry>
                </mxCell>
                <mxCell id="2669" value="" style="rounded=0;whiteSpace=wrap;html=1;fillColor=none;" parent="1" vertex="1">
                    <mxGeometry x="380" y="2877.5" width="40" height="40" as="geometry"/>
                </mxCell>
                <mxCell id="2670" value="&lt;font style=&quot;font-size: 8px&quot;&gt;Conv2d $$5\times5@64 $$&lt;/font&gt;" style="text;html=1;align=center;verticalAlign=middle;resizable=0;points=[];autosize=1;strokeColor=none;fillColor=none;" parent="1" vertex="1">
                    <mxGeometry x="140" y="2930" width="120" height="20" as="geometry"/>
                </mxCell>
                <mxCell id="2671" value="$$32\times32@1$$" style="text;html=1;align=center;verticalAlign=middle;resizable=0;points=[];autosize=1;strokeColor=none;fillColor=none;" parent="1" vertex="1">
                    <mxGeometry x="135" y="2970" width="130" height="20" as="geometry"/>
                </mxCell>
                <mxCell id="2674" value="" style="endArrow=classic;html=1;" parent="1" edge="1">
                    <mxGeometry width="50" height="50" relative="1" as="geometry">
                        <mxPoint x="400.0000000000002" y="2877.5" as="sourcePoint"/>
                        <mxPoint x="400.0000000000002" y="2837.5" as="targetPoint"/>
                    </mxGeometry>
                </mxCell>
                <mxCell id="2684" value="" style="edgeStyle=none;html=1;fontSize=8;" parent="1" source="2675" target="2679" edge="1">
                    <mxGeometry relative="1" as="geometry"/>
                </mxCell>
                <mxCell id="2675" value="" style="rounded=0;whiteSpace=wrap;html=1;fillColor=none;" parent="1" vertex="1">
                    <mxGeometry x="380" y="2797.5" width="40" height="40" as="geometry"/>
                </mxCell>
                <mxCell id="2676" value="&lt;font style=&quot;font-size: 8px&quot;&gt;Conv2d $$5\times5@64 $$&lt;/font&gt;" style="text;html=1;align=center;verticalAlign=middle;resizable=0;points=[];autosize=1;strokeColor=none;fillColor=none;" parent="1" vertex="1">
                    <mxGeometry x="140" y="2850" width="120" height="20" as="geometry"/>
                </mxCell>
                <mxCell id="2677" value="$$32\times32@64$$" style="text;html=1;align=center;verticalAlign=middle;resizable=0;points=[];autosize=1;strokeColor=none;fillColor=none;" parent="1" vertex="1">
                    <mxGeometry x="130" y="2890" width="140" height="20" as="geometry"/>
                </mxCell>
                <mxCell id="2678" value="" style="endArrow=classic;html=1;" parent="1" edge="1">
                    <mxGeometry width="50" height="50" relative="1" as="geometry">
                        <mxPoint x="400.0000000000002" y="2797.5" as="sourcePoint"/>
                        <mxPoint x="400.0000000000002" y="2757.5" as="targetPoint"/>
                    </mxGeometry>
                </mxCell>
                <mxCell id="2679" value="" style="rounded=0;whiteSpace=wrap;html=1;fillColor=none;" parent="1" vertex="1">
                    <mxGeometry x="380" y="2717.5" width="40" height="40" as="geometry"/>
                </mxCell>
                <mxCell id="2680" value="&lt;font style=&quot;font-size: 8px&quot;&gt;Conv2d $$5\times5@64 $$&lt;/font&gt;" style="text;html=1;align=center;verticalAlign=middle;resizable=0;points=[];autosize=1;strokeColor=none;fillColor=none;" parent="1" vertex="1">
                    <mxGeometry x="140" y="2770" width="120" height="20" as="geometry"/>
                </mxCell>
                <mxCell id="2681" value="$$32\times32@64$$" style="text;html=1;align=center;verticalAlign=middle;resizable=0;points=[];autosize=1;strokeColor=none;fillColor=none;" parent="1" vertex="1">
                    <mxGeometry x="130" y="2810" width="140" height="20" as="geometry"/>
                </mxCell>
                <mxCell id="2686" value="" style="endArrow=classic;html=1;" parent="1" edge="1">
                    <mxGeometry width="50" height="50" relative="1" as="geometry">
                        <mxPoint x="400" y="2667.5" as="sourcePoint"/>
                        <mxPoint x="400.0000000000002" y="2637.5" as="targetPoint"/>
                    </mxGeometry>
                </mxCell>
                <mxCell id="2688" value="$$32\times32@64$$" style="text;html=1;align=center;verticalAlign=middle;resizable=0;points=[];autosize=1;strokeColor=none;fillColor=none;" parent="1" vertex="1">
                    <mxGeometry x="130" y="2730" width="140" height="20" as="geometry"/>
                </mxCell>
                <mxCell id="2690" value="" style="endArrow=classic;html=1;fontSize=8;" parent="1" edge="1">
                    <mxGeometry width="50" height="50" relative="1" as="geometry">
                        <mxPoint x="420" y="2897.5" as="sourcePoint"/>
                        <mxPoint x="410" y="2677.5" as="targetPoint"/>
                        <Array as="points">
                            <mxPoint x="440" y="2897.5"/>
                            <mxPoint x="440" y="2787.5"/>
                            <mxPoint x="440" y="2677.5"/>
                        </Array>
                    </mxGeometry>
                </mxCell>
                <mxCell id="2691" value="" style="verticalLabelPosition=bottom;verticalAlign=top;html=1;shape=mxgraph.flowchart.summing_function;fontSize=8;" parent="1" vertex="1">
                    <mxGeometry x="390" y="2667.5" width="20" height="20" as="geometry"/>
                </mxCell>
                <mxCell id="2695" value="" style="endArrow=classic;html=1;" parent="1" edge="1">
                    <mxGeometry width="50" height="50" relative="1" as="geometry">
                        <mxPoint x="400" y="2717.5" as="sourcePoint"/>
                        <mxPoint x="400.0000000000002" y="2687.5" as="targetPoint"/>
                    </mxGeometry>
                </mxCell>
                <mxCell id="2696" value="" style="rounded=0;whiteSpace=wrap;html=1;fillColor=none;" parent="1" vertex="1">
                    <mxGeometry x="380" y="2597.5" width="40" height="40" as="geometry"/>
                </mxCell>
                <mxCell id="2697" value="" style="endArrow=classic;html=1;" parent="1" edge="1">
                    <mxGeometry width="50" height="50" relative="1" as="geometry">
                        <mxPoint x="400.0000000000002" y="2597.5" as="sourcePoint"/>
                        <mxPoint x="400.0000000000002" y="2557.5" as="targetPoint"/>
                    </mxGeometry>
                </mxCell>
                <mxCell id="2698" value="" style="edgeStyle=none;html=1;fontSize=8;" parent="1" source="2699" target="2703" edge="1">
                    <mxGeometry relative="1" as="geometry"/>
                </mxCell>
                <mxCell id="2699" value="" style="rounded=0;whiteSpace=wrap;html=1;fillColor=none;" parent="1" vertex="1">
                    <mxGeometry x="380" y="2517.5" width="40" height="40" as="geometry"/>
                </mxCell>
                <mxCell id="2700" value="&lt;font style=&quot;font-size: 8px&quot;&gt;Conv2d $$5\times5@64 $$&lt;/font&gt;" style="text;html=1;align=center;verticalAlign=middle;resizable=0;points=[];autosize=1;strokeColor=none;fillColor=none;" parent="1" vertex="1">
                    <mxGeometry x="140" y="2570" width="120" height="20" as="geometry"/>
                </mxCell>
                <mxCell id="2701" value="$$32\times32@64$$" style="text;html=1;align=center;verticalAlign=middle;resizable=0;points=[];autosize=1;strokeColor=none;fillColor=none;" parent="1" vertex="1">
                    <mxGeometry x="130" y="2610" width="140" height="20" as="geometry"/>
                </mxCell>
                <mxCell id="2702" value="" style="endArrow=classic;html=1;" parent="1" edge="1">
                    <mxGeometry width="50" height="50" relative="1" as="geometry">
                        <mxPoint x="400.0000000000002" y="2517.5" as="sourcePoint"/>
                        <mxPoint x="400.0000000000002" y="2477.5" as="targetPoint"/>
                    </mxGeometry>
                </mxCell>
                <mxCell id="2703" value="" style="rounded=0;whiteSpace=wrap;html=1;fillColor=none;" parent="1" vertex="1">
                    <mxGeometry x="380" y="2437.5" width="40" height="40" as="geometry"/>
                </mxCell>
                <mxCell id="2704" value="&lt;font style=&quot;font-size: 8px&quot;&gt;Conv2d $$5\times5@64 $$&lt;/font&gt;" style="text;html=1;align=center;verticalAlign=middle;resizable=0;points=[];autosize=1;strokeColor=none;fillColor=none;" parent="1" vertex="1">
                    <mxGeometry x="140" y="2490" width="120" height="20" as="geometry"/>
                </mxCell>
                <mxCell id="2705" value="$$32\times32@64$$" style="text;html=1;align=center;verticalAlign=middle;resizable=0;points=[];autosize=1;strokeColor=none;fillColor=none;" parent="1" vertex="1">
                    <mxGeometry x="130" y="2530" width="140" height="20" as="geometry"/>
                </mxCell>
                <mxCell id="2706" value="" style="endArrow=classic;html=1;" parent="1" edge="1">
                    <mxGeometry width="50" height="50" relative="1" as="geometry">
                        <mxPoint x="400" y="2387.5" as="sourcePoint"/>
                        <mxPoint x="400.0000000000002" y="2357.5" as="targetPoint"/>
                    </mxGeometry>
                </mxCell>
                <mxCell id="2708" value="$$32\times32@64$$" style="text;html=1;align=center;verticalAlign=middle;resizable=0;points=[];autosize=1;strokeColor=none;fillColor=none;" parent="1" vertex="1">
                    <mxGeometry x="130" y="2450" width="140" height="20" as="geometry"/>
                </mxCell>
                <mxCell id="2709" value="" style="endArrow=classic;html=1;fontSize=8;" parent="1" edge="1">
                    <mxGeometry width="50" height="50" relative="1" as="geometry">
                        <mxPoint x="420" y="2617.5" as="sourcePoint"/>
                        <mxPoint x="410" y="2397.5" as="targetPoint"/>
                        <Array as="points">
                            <mxPoint x="440" y="2617.5"/>
                            <mxPoint x="440" y="2397.5"/>
                        </Array>
                    </mxGeometry>
                </mxCell>
                <mxCell id="2710" value="" style="verticalLabelPosition=bottom;verticalAlign=top;html=1;shape=mxgraph.flowchart.summing_function;fontSize=8;" parent="1" vertex="1">
                    <mxGeometry x="390" y="2387.5" width="20" height="20" as="geometry"/>
                </mxCell>
                <mxCell id="2711" value="" style="endArrow=classic;html=1;" parent="1" edge="1">
                    <mxGeometry width="50" height="50" relative="1" as="geometry">
                        <mxPoint x="400" y="2437.5" as="sourcePoint"/>
                        <mxPoint x="400.0000000000002" y="2407.5" as="targetPoint"/>
                    </mxGeometry>
                </mxCell>
                <mxCell id="2712" value="" style="rounded=0;whiteSpace=wrap;html=1;fillColor=none;" parent="1" vertex="1">
                    <mxGeometry x="380" y="2317.5" width="40" height="40" as="geometry"/>
                </mxCell>
                <mxCell id="2713" value="" style="endArrow=classic;html=1;" parent="1" edge="1">
                    <mxGeometry width="50" height="50" relative="1" as="geometry">
                        <mxPoint x="400.0000000000002" y="2317.5" as="sourcePoint"/>
                        <mxPoint x="400.0000000000002" y="2277.5" as="targetPoint"/>
                    </mxGeometry>
                </mxCell>
                <mxCell id="2714" value="" style="edgeStyle=none;html=1;fontSize=8;" parent="1" source="2715" target="2719" edge="1">
                    <mxGeometry relative="1" as="geometry"/>
                </mxCell>
                <mxCell id="2715" value="" style="rounded=0;whiteSpace=wrap;html=1;fillColor=none;" parent="1" vertex="1">
                    <mxGeometry x="380" y="2237.5" width="40" height="40" as="geometry"/>
                </mxCell>
                <mxCell id="2716" value="&lt;font style=&quot;font-size: 8px&quot;&gt;Conv2d $$5\times5@64 $$&lt;/font&gt;" style="text;html=1;align=center;verticalAlign=middle;resizable=0;points=[];autosize=1;strokeColor=none;fillColor=none;" parent="1" vertex="1">
                    <mxGeometry x="140" y="2290" width="120" height="20" as="geometry"/>
                </mxCell>
                <mxCell id="2717" value="$$32\times32@64$$" style="text;html=1;align=center;verticalAlign=middle;resizable=0;points=[];autosize=1;strokeColor=none;fillColor=none;" parent="1" vertex="1">
                    <mxGeometry x="130" y="2330" width="140" height="20" as="geometry"/>
                </mxCell>
                <mxCell id="2718" value="" style="endArrow=classic;html=1;" parent="1" edge="1">
                    <mxGeometry width="50" height="50" relative="1" as="geometry">
                        <mxPoint x="400.0000000000002" y="2237.5" as="sourcePoint"/>
                        <mxPoint x="400.0000000000002" y="2197.5" as="targetPoint"/>
                    </mxGeometry>
                </mxCell>
                <mxCell id="2719" value="" style="rounded=0;whiteSpace=wrap;html=1;fillColor=none;" parent="1" vertex="1">
                    <mxGeometry x="380" y="2157.5" width="40" height="40" as="geometry"/>
                </mxCell>
                <mxCell id="2720" value="&lt;font style=&quot;font-size: 8px&quot;&gt;Conv2d $$5\times5@64 $$&lt;/font&gt;" style="text;html=1;align=center;verticalAlign=middle;resizable=0;points=[];autosize=1;strokeColor=none;fillColor=none;" parent="1" vertex="1">
                    <mxGeometry x="140" y="2210" width="120" height="20" as="geometry"/>
                </mxCell>
                <mxCell id="2721" value="$$32\times32@64$$" style="text;html=1;align=center;verticalAlign=middle;resizable=0;points=[];autosize=1;strokeColor=none;fillColor=none;" parent="1" vertex="1">
                    <mxGeometry x="130" y="2250" width="140" height="20" as="geometry"/>
                </mxCell>
                <mxCell id="2722" value="" style="endArrow=classic;html=1;" parent="1" edge="1">
                    <mxGeometry width="50" height="50" relative="1" as="geometry">
                        <mxPoint x="400" y="2107.5" as="sourcePoint"/>
                        <mxPoint x="400.0000000000002" y="2077.5" as="targetPoint"/>
                    </mxGeometry>
                </mxCell>
                <mxCell id="2723" value="$$32\times32@64$$" style="text;html=1;align=center;verticalAlign=middle;resizable=0;points=[];autosize=1;strokeColor=none;fillColor=none;" parent="1" vertex="1">
                    <mxGeometry x="130" y="2170" width="140" height="20" as="geometry"/>
                </mxCell>
                <mxCell id="2724" value="" style="endArrow=classic;html=1;fontSize=8;" parent="1" edge="1">
                    <mxGeometry width="50" height="50" relative="1" as="geometry">
                        <mxPoint x="420" y="2337.5" as="sourcePoint"/>
                        <mxPoint x="410" y="2117.5" as="targetPoint"/>
                        <Array as="points">
                            <mxPoint x="440" y="2337.5"/>
                            <mxPoint x="440" y="2117.5"/>
                        </Array>
                    </mxGeometry>
                </mxCell>
                <mxCell id="2725" value="" style="verticalLabelPosition=bottom;verticalAlign=top;html=1;shape=mxgraph.flowchart.summing_function;fontSize=8;" parent="1" vertex="1">
                    <mxGeometry x="390" y="2107.5" width="20" height="20" as="geometry"/>
                </mxCell>
                <mxCell id="2726" value="" style="endArrow=classic;html=1;" parent="1" edge="1">
                    <mxGeometry width="50" height="50" relative="1" as="geometry">
                        <mxPoint x="400" y="2157.5" as="sourcePoint"/>
                        <mxPoint x="400.0000000000002" y="2127.5" as="targetPoint"/>
                    </mxGeometry>
                </mxCell>
                <mxCell id="2728" value="$$32\times32@64$$" style="text;html=1;align=center;verticalAlign=middle;resizable=0;points=[];autosize=1;strokeColor=none;fillColor=none;" parent="1" vertex="1">
                    <mxGeometry x="130" y="2050" width="140" height="20" as="geometry"/>
                </mxCell>
                <mxCell id="2729" value="" style="rounded=0;whiteSpace=wrap;html=1;fillColor=none;" parent="1" vertex="1">
                    <mxGeometry x="380" y="2037.5" width="40" height="40" as="geometry"/>
                </mxCell>
                <mxCell id="2730" value="" style="endArrow=classic;html=1;entryX=0.5;entryY=1;entryDx=0;entryDy=0;" parent="1" target="2732" edge="1">
                    <mxGeometry width="50" height="50" relative="1" as="geometry">
                        <mxPoint x="400" y="2037.5" as="sourcePoint"/>
                        <mxPoint x="400" y="1997.5" as="targetPoint"/>
                    </mxGeometry>
                </mxCell>
                <mxCell id="2731" value="&lt;font style=&quot;font-size: 8px&quot;&gt;Conv2d (2,2)$$5\times5@64 $$&lt;/font&gt;" style="text;html=1;align=center;verticalAlign=middle;resizable=0;points=[];autosize=1;strokeColor=none;fillColor=none;" parent="1" vertex="1">
                    <mxGeometry x="130" y="2010" width="140" height="20" as="geometry"/>
                </mxCell>
                <mxCell id="2732" value="" style="rounded=0;whiteSpace=wrap;html=1;fillColor=none;" parent="1" vertex="1">
                    <mxGeometry x="390" y="1967.5" width="20" height="20" as="geometry"/>
                </mxCell>
                <mxCell id="2733" value="$$16\times16@64$$" style="text;html=1;align=center;verticalAlign=middle;resizable=0;points=[];autosize=1;strokeColor=none;fillColor=none;" parent="1" vertex="1">
                    <mxGeometry x="130" y="1970" width="140" height="20" as="geometry"/>
                </mxCell>
                <mxCell id="2734" value="" style="rounded=0;whiteSpace=wrap;html=1;fillColor=none;" parent="1" vertex="1">
                    <mxGeometry x="460" y="2877.5" width="40" height="40" as="geometry"/>
                </mxCell>
                <mxCell id="2735" value="" style="endArrow=classic;html=1;" parent="1" edge="1">
                    <mxGeometry width="50" height="50" relative="1" as="geometry">
                        <mxPoint x="480.0000000000002" y="2877.5" as="sourcePoint"/>
                        <mxPoint x="480.0000000000002" y="2837.5" as="targetPoint"/>
                    </mxGeometry>
                </mxCell>
                <mxCell id="2736" value="" style="edgeStyle=none;html=1;fontSize=8;" parent="1" source="2737" target="2739" edge="1">
                    <mxGeometry relative="1" as="geometry"/>
                </mxCell>
                <mxCell id="2737" value="" style="rounded=0;whiteSpace=wrap;html=1;fillColor=none;" parent="1" vertex="1">
                    <mxGeometry x="460" y="2797.5" width="40" height="40" as="geometry"/>
                </mxCell>
                <mxCell id="2739" value="" style="rounded=0;whiteSpace=wrap;html=1;fillColor=none;" parent="1" vertex="1">
                    <mxGeometry x="460" y="2720" width="40" height="40" as="geometry"/>
                </mxCell>
                <mxCell id="2740" value="" style="endArrow=classic;html=1;" parent="1" edge="1">
                    <mxGeometry width="50" height="50" relative="1" as="geometry">
                        <mxPoint x="480" y="2667.5" as="sourcePoint"/>
                        <mxPoint x="480.0000000000002" y="2637.5" as="targetPoint"/>
                    </mxGeometry>
                </mxCell>
                <mxCell id="2741" value="" style="endArrow=classic;html=1;fontSize=8;" parent="1" edge="1">
                    <mxGeometry width="50" height="50" relative="1" as="geometry">
                        <mxPoint x="500" y="2897.5" as="sourcePoint"/>
                        <mxPoint x="490" y="2677.5" as="targetPoint"/>
                        <Array as="points">
                            <mxPoint x="520" y="2897.5"/>
                            <mxPoint x="520" y="2787.5"/>
                            <mxPoint x="520" y="2677.5"/>
                        </Array>
                    </mxGeometry>
                </mxCell>
                <mxCell id="2742" value="" style="verticalLabelPosition=bottom;verticalAlign=top;html=1;shape=mxgraph.flowchart.summing_function;fontSize=8;" parent="1" vertex="1">
                    <mxGeometry x="470" y="2667.5" width="20" height="20" as="geometry"/>
                </mxCell>
                <mxCell id="2743" value="" style="endArrow=classic;html=1;" parent="1" edge="1">
                    <mxGeometry width="50" height="50" relative="1" as="geometry">
                        <mxPoint x="480" y="2717.5" as="sourcePoint"/>
                        <mxPoint x="480.0000000000002" y="2687.5" as="targetPoint"/>
                    </mxGeometry>
                </mxCell>
                <mxCell id="2744" value="" style="rounded=0;whiteSpace=wrap;html=1;fillColor=none;" parent="1" vertex="1">
                    <mxGeometry x="460" y="2597.5" width="40" height="40" as="geometry"/>
                </mxCell>
                <mxCell id="2745" value="" style="endArrow=classic;html=1;" parent="1" edge="1">
                    <mxGeometry width="50" height="50" relative="1" as="geometry">
                        <mxPoint x="480.0000000000002" y="2597.5" as="sourcePoint"/>
                        <mxPoint x="480.0000000000002" y="2557.5" as="targetPoint"/>
                    </mxGeometry>
                </mxCell>
                <mxCell id="2746" value="" style="edgeStyle=none;html=1;fontSize=8;" parent="1" source="2747" target="2749" edge="1">
                    <mxGeometry relative="1" as="geometry"/>
                </mxCell>
                <mxCell id="2747" value="" style="rounded=0;whiteSpace=wrap;html=1;fillColor=none;" parent="1" vertex="1">
                    <mxGeometry x="460" y="2517.5" width="40" height="40" as="geometry"/>
                </mxCell>
                <mxCell id="2748" value="" style="endArrow=classic;html=1;" parent="1" edge="1">
                    <mxGeometry width="50" height="50" relative="1" as="geometry">
                        <mxPoint x="480.0000000000002" y="2517.5" as="sourcePoint"/>
                        <mxPoint x="480.0000000000002" y="2477.5" as="targetPoint"/>
                    </mxGeometry>
                </mxCell>
                <mxCell id="2749" value="" style="rounded=0;whiteSpace=wrap;html=1;fillColor=none;" parent="1" vertex="1">
                    <mxGeometry x="460" y="2440" width="40" height="40" as="geometry"/>
                </mxCell>
                <mxCell id="2750" value="" style="endArrow=classic;html=1;" parent="1" edge="1">
                    <mxGeometry width="50" height="50" relative="1" as="geometry">
                        <mxPoint x="480" y="2387.5" as="sourcePoint"/>
                        <mxPoint x="480.0000000000002" y="2357.5" as="targetPoint"/>
                    </mxGeometry>
                </mxCell>
                <mxCell id="2751" value="" style="endArrow=classic;html=1;fontSize=8;" parent="1" edge="1">
                    <mxGeometry width="50" height="50" relative="1" as="geometry">
                        <mxPoint x="500" y="2617.5" as="sourcePoint"/>
                        <mxPoint x="490" y="2397.5" as="targetPoint"/>
                        <Array as="points">
                            <mxPoint x="520" y="2617.5"/>
                            <mxPoint x="520" y="2397.5"/>
                        </Array>
                    </mxGeometry>
                </mxCell>
                <mxCell id="2752" value="" style="verticalLabelPosition=bottom;verticalAlign=top;html=1;shape=mxgraph.flowchart.summing_function;fontSize=8;" parent="1" vertex="1">
                    <mxGeometry x="470" y="2387.5" width="20" height="20" as="geometry"/>
                </mxCell>
                <mxCell id="2753" value="" style="endArrow=classic;html=1;" parent="1" edge="1">
                    <mxGeometry width="50" height="50" relative="1" as="geometry">
                        <mxPoint x="480" y="2437.5" as="sourcePoint"/>
                        <mxPoint x="480.0000000000002" y="2407.5" as="targetPoint"/>
                    </mxGeometry>
                </mxCell>
                <mxCell id="2754" value="" style="rounded=0;whiteSpace=wrap;html=1;fillColor=none;" parent="1" vertex="1">
                    <mxGeometry x="460" y="2317.5" width="40" height="40" as="geometry"/>
                </mxCell>
                <mxCell id="2755" value="" style="endArrow=classic;html=1;" parent="1" edge="1">
                    <mxGeometry width="50" height="50" relative="1" as="geometry">
                        <mxPoint x="480.0000000000002" y="2317.5" as="sourcePoint"/>
                        <mxPoint x="480.0000000000002" y="2277.5" as="targetPoint"/>
                    </mxGeometry>
                </mxCell>
                <mxCell id="2756" value="" style="edgeStyle=none;html=1;fontSize=8;" parent="1" source="2757" target="2759" edge="1">
                    <mxGeometry relative="1" as="geometry"/>
                </mxCell>
                <mxCell id="2757" value="" style="rounded=0;whiteSpace=wrap;html=1;fillColor=none;" parent="1" vertex="1">
                    <mxGeometry x="460" y="2237.5" width="40" height="40" as="geometry"/>
                </mxCell>
                <mxCell id="2758" value="" style="endArrow=classic;html=1;" parent="1" edge="1">
                    <mxGeometry width="50" height="50" relative="1" as="geometry">
                        <mxPoint x="480.0000000000002" y="2237.5" as="sourcePoint"/>
                        <mxPoint x="480.0000000000002" y="2197.5" as="targetPoint"/>
                    </mxGeometry>
                </mxCell>
                <mxCell id="2759" value="" style="rounded=0;whiteSpace=wrap;html=1;fillColor=none;" parent="1" vertex="1">
                    <mxGeometry x="460" y="2157.5" width="40" height="40" as="geometry"/>
                </mxCell>
                <mxCell id="2760" value="" style="endArrow=classic;html=1;" parent="1" edge="1">
                    <mxGeometry width="50" height="50" relative="1" as="geometry">
                        <mxPoint x="480" y="2107.5" as="sourcePoint"/>
                        <mxPoint x="480.0000000000002" y="2077.5" as="targetPoint"/>
                    </mxGeometry>
                </mxCell>
                <mxCell id="2761" value="" style="endArrow=classic;html=1;fontSize=8;" parent="1" edge="1">
                    <mxGeometry width="50" height="50" relative="1" as="geometry">
                        <mxPoint x="500" y="2337.5" as="sourcePoint"/>
                        <mxPoint x="490" y="2117.5" as="targetPoint"/>
                        <Array as="points">
                            <mxPoint x="520" y="2337.5"/>
                            <mxPoint x="520" y="2117.5"/>
                        </Array>
                    </mxGeometry>
                </mxCell>
                <mxCell id="2762" value="" style="verticalLabelPosition=bottom;verticalAlign=top;html=1;shape=mxgraph.flowchart.summing_function;fontSize=8;" parent="1" vertex="1">
                    <mxGeometry x="470" y="2107.5" width="20" height="20" as="geometry"/>
                </mxCell>
                <mxCell id="2763" value="" style="endArrow=classic;html=1;" parent="1" edge="1">
                    <mxGeometry width="50" height="50" relative="1" as="geometry">
                        <mxPoint x="480" y="2157.5" as="sourcePoint"/>
                        <mxPoint x="480.0000000000002" y="2127.5" as="targetPoint"/>
                    </mxGeometry>
                </mxCell>
                <mxCell id="2764" value="" style="rounded=0;whiteSpace=wrap;html=1;fillColor=none;" parent="1" vertex="1">
                    <mxGeometry x="460" y="2037.5" width="40" height="40" as="geometry"/>
                </mxCell>
                <mxCell id="2765" value="" style="endArrow=classic;html=1;entryX=0.5;entryY=1;entryDx=0;entryDy=0;" parent="1" target="2766" edge="1">
                    <mxGeometry width="50" height="50" relative="1" as="geometry">
                        <mxPoint x="480" y="2037.5" as="sourcePoint"/>
                        <mxPoint x="480" y="1997.5" as="targetPoint"/>
                    </mxGeometry>
                </mxCell>
                <mxCell id="2766" value="" style="rounded=0;whiteSpace=wrap;html=1;fillColor=none;" parent="1" vertex="1">
                    <mxGeometry x="470" y="1967.5" width="20" height="20" as="geometry"/>
                </mxCell>
                <mxCell id="2767" value="" style="endArrow=classic;html=1;" parent="1" edge="1">
                    <mxGeometry width="50" height="50" relative="1" as="geometry">
                        <mxPoint x="480" y="2957.5" as="sourcePoint"/>
                        <mxPoint x="480" y="2917.5" as="targetPoint"/>
                    </mxGeometry>
                </mxCell>
                <mxCell id="2768" value="" style="rounded=0;whiteSpace=wrap;html=1;fillColor=none;" parent="1" vertex="1">
                    <mxGeometry x="420" y="1887.5" width="20" height="20" as="geometry"/>
                </mxCell>
                <mxCell id="2769" value="" style="rounded=0;whiteSpace=wrap;html=1;fillColor=none;" parent="1" vertex="1">
                    <mxGeometry x="440" y="1887.5" width="20" height="20" as="geometry"/>
                </mxCell>
                <mxCell id="2770" value="" style="endArrow=none;html=1;fontSize=8;entryX=0;entryY=1;entryDx=0;entryDy=0;" parent="1" target="2768" edge="1">
                    <mxGeometry width="50" height="50" relative="1" as="geometry">
                        <mxPoint x="390" y="1967.5" as="sourcePoint"/>
                        <mxPoint x="440" y="1917.5" as="targetPoint"/>
                    </mxGeometry>
                </mxCell>
                <mxCell id="2771" value="" style="endArrow=none;html=1;fontSize=8;entryX=0;entryY=1;entryDx=0;entryDy=0;" parent="1" edge="1">
                    <mxGeometry width="50" height="50" relative="1" as="geometry">
                        <mxPoint x="410.0000000000001" y="1967.5" as="sourcePoint"/>
                        <mxPoint x="440.0000000000001" y="1907.5" as="targetPoint"/>
                    </mxGeometry>
                </mxCell>
                <mxCell id="2772" value="" style="endArrow=none;html=1;fontSize=8;entryX=0;entryY=1;entryDx=0;entryDy=0;exitX=0;exitY=0;exitDx=0;exitDy=0;" parent="1" source="2766" target="2769" edge="1">
                    <mxGeometry width="50" height="50" relative="1" as="geometry">
                        <mxPoint x="430.0000000000001" y="1967.5" as="sourcePoint"/>
                        <mxPoint x="460.0000000000001" y="1907.5" as="targetPoint"/>
                    </mxGeometry>
                </mxCell>
                <mxCell id="2773" value="" style="endArrow=none;html=1;fontSize=8;entryX=0;entryY=1;entryDx=0;entryDy=0;exitX=0;exitY=0;exitDx=0;exitDy=0;" parent="1" edge="1">
                    <mxGeometry width="50" height="50" relative="1" as="geometry">
                        <mxPoint x="490.0000000000001" y="1967.5" as="sourcePoint"/>
                        <mxPoint x="460.0000000000001" y="1907.5" as="targetPoint"/>
                    </mxGeometry>
                </mxCell>
                <mxCell id="2774" value="Concat" style="text;html=1;align=center;verticalAlign=middle;resizable=0;points=[];autosize=1;strokeColor=none;fillColor=none;fontSize=8;" parent="1" vertex="1">
                    <mxGeometry x="180" y="1930" width="40" height="20" as="geometry"/>
                </mxCell>
                <mxCell id="2775" value="&lt;font style=&quot;font-size: 8px&quot;&gt;Conv2d (2,1)$$5\times5@64 $$&lt;/font&gt;" style="text;html=1;align=center;verticalAlign=middle;resizable=0;points=[];autosize=1;strokeColor=none;fillColor=none;" parent="1" vertex="1">
                    <mxGeometry x="135" y="1850" width="140" height="20" as="geometry"/>
                </mxCell>
                <mxCell id="3554" style="edgeStyle=none;html=1;entryX=0.5;entryY=1;entryDx=0;entryDy=0;entryPerimeter=0;" edge="1" parent="1" source="2777">
                    <mxGeometry relative="1" as="geometry">
                        <mxPoint x="440" y="1790" as="targetPoint"/>
                    </mxGeometry>
                </mxCell>
                <mxCell id="2777" value="" style="rounded=0;whiteSpace=wrap;html=1;fillColor=none;" parent="1" vertex="1">
                    <mxGeometry x="430" y="1830" width="20" height="20" as="geometry"/>
                </mxCell>
                <mxCell id="2778" value="$$32\times16@64$$" style="text;html=1;align=center;verticalAlign=middle;resizable=0;points=[];autosize=1;strokeColor=none;fillColor=none;" parent="1" vertex="1">
                    <mxGeometry x="140" y="1890" width="140" height="20" as="geometry"/>
                </mxCell>
                <mxCell id="3560" style="edgeStyle=none;html=1;entryX=1;entryY=0.5;entryDx=0;entryDy=0;entryPerimeter=0;" edge="1" parent="1" source="2779" target="3556">
                    <mxGeometry relative="1" as="geometry">
                        <mxPoint x="520" y="1419.5" as="targetPoint"/>
                        <Array as="points">
                            <mxPoint x="480" y="1619.5"/>
                            <mxPoint x="480" y="1379.5"/>
                        </Array>
                    </mxGeometry>
                </mxCell>
                <mxCell id="2779" value="" style="rounded=0;whiteSpace=wrap;html=1;fillColor=none;" parent="1" vertex="1">
                    <mxGeometry x="430" y="1609.5" width="20" height="20" as="geometry"/>
                </mxCell>
                <mxCell id="2781" value="" style="rounded=0;whiteSpace=wrap;html=1;fillColor=none;" parent="1" vertex="1">
                    <mxGeometry x="430" y="1529.5" width="20" height="20" as="geometry"/>
                </mxCell>
                <mxCell id="2782" value="" style="endArrow=classic;html=1;fontSize=8;entryX=0.5;entryY=1;entryDx=0;entryDy=0;exitX=0.5;exitY=0;exitDx=0;exitDy=0;" parent="1" target="2781" edge="1" source="2779">
                    <mxGeometry width="50" height="50" relative="1" as="geometry">
                        <mxPoint x="440" y="1607" as="sourcePoint"/>
                        <mxPoint x="440" y="1587" as="targetPoint"/>
                        <Array as="points">
                            <mxPoint x="440" y="1567"/>
                        </Array>
                    </mxGeometry>
                </mxCell>
                <mxCell id="2783" value="$$16\times16@64$$" style="text;html=1;align=center;verticalAlign=middle;resizable=0;points=[];autosize=1;strokeColor=none;fillColor=none;" parent="1" vertex="1">
                    <mxGeometry x="140" y="1810" width="140" height="20" as="geometry"/>
                </mxCell>
                <mxCell id="2784" value="&lt;font style=&quot;font-size: 8px&quot;&gt;Conv2d $$5\times5@64 $$&lt;/font&gt;" style="text;html=1;align=center;verticalAlign=middle;resizable=0;points=[];autosize=1;strokeColor=none;fillColor=none;" parent="1" vertex="1">
                    <mxGeometry x="150" y="1770" width="120" height="20" as="geometry"/>
                </mxCell>
                <mxCell id="2785" value="&lt;font style=&quot;font-size: 8px&quot;&gt;Conv2d $$5\times5@64 $$&lt;/font&gt;" style="text;html=1;align=center;verticalAlign=middle;resizable=0;points=[];autosize=1;strokeColor=none;fillColor=none;" parent="1" vertex="1">
                    <mxGeometry x="150" y="1690" width="120" height="20" as="geometry"/>
                </mxCell>
                <mxCell id="2786" value="$$16\times16@64$$" style="text;html=1;align=center;verticalAlign=middle;resizable=0;points=[];autosize=1;strokeColor=none;fillColor=none;" parent="1" vertex="1">
                    <mxGeometry x="140" y="1730" width="140" height="20" as="geometry"/>
                </mxCell>
                <mxCell id="2791" value="" style="endArrow=classic;html=1;fontSize=8;exitX=0.5;exitY=0;exitDx=0;exitDy=0;" parent="1" source="2781" edge="1">
                    <mxGeometry width="50" height="50" relative="1" as="geometry">
                        <mxPoint x="390" y="1557" as="sourcePoint"/>
                        <mxPoint x="440" y="1469.5" as="targetPoint"/>
                    </mxGeometry>
                </mxCell>
                <mxCell id="2794" value="$$16\times16@64$$" style="text;html=1;align=center;verticalAlign=middle;resizable=0;points=[];autosize=1;strokeColor=none;fillColor=none;" parent="1" vertex="1">
                    <mxGeometry x="140" y="1650" width="140" height="20" as="geometry"/>
                </mxCell>
                <mxCell id="3558" style="edgeStyle=none;html=1;entryX=0.5;entryY=1;entryDx=0;entryDy=0;entryPerimeter=0;" edge="1" parent="1" source="2795" target="3556">
                    <mxGeometry relative="1" as="geometry"/>
                </mxCell>
                <mxCell id="2795" value="" style="rounded=0;whiteSpace=wrap;html=1;fillColor=none;" parent="1" vertex="1">
                    <mxGeometry x="430" y="1449.5" width="20" height="20" as="geometry"/>
                </mxCell>
                <mxCell id="3562" style="edgeStyle=none;html=1;entryX=1;entryY=0.5;entryDx=0;entryDy=0;entryPerimeter=0;" edge="1" parent="1" source="2796" target="3561">
                    <mxGeometry relative="1" as="geometry">
                        <mxPoint x="480" y="1100.5" as="targetPoint"/>
                        <Array as="points">
                            <mxPoint x="480" y="1300.5"/>
                            <mxPoint x="480" y="1060.5"/>
                        </Array>
                    </mxGeometry>
                </mxCell>
                <mxCell id="2796" value="" style="rounded=0;whiteSpace=wrap;html=1;fillColor=none;" parent="1" vertex="1">
                    <mxGeometry x="430" y="1290.5" width="20" height="20" as="geometry"/>
                </mxCell>
                <mxCell id="2798" value="" style="rounded=0;whiteSpace=wrap;html=1;fillColor=none;" parent="1" vertex="1">
                    <mxGeometry x="430" y="1208" width="20" height="20" as="geometry"/>
                </mxCell>
                <mxCell id="2799" value="" style="endArrow=classic;html=1;fontSize=8;entryX=0.5;entryY=1;entryDx=0;entryDy=0;" parent="1" target="2798" edge="1">
                    <mxGeometry width="50" height="50" relative="1" as="geometry">
                        <mxPoint x="440" y="1288" as="sourcePoint"/>
                        <mxPoint x="440" y="1268" as="targetPoint"/>
                        <Array as="points">
                            <mxPoint x="440" y="1248"/>
                        </Array>
                    </mxGeometry>
                </mxCell>
                <mxCell id="2800" value="$$16\times16@64$$" style="text;html=1;align=center;verticalAlign=middle;resizable=0;points=[];autosize=1;strokeColor=none;fillColor=none;" parent="1" vertex="1">
                    <mxGeometry x="140" y="1570" width="140" height="20" as="geometry"/>
                </mxCell>
                <mxCell id="2801" value="&lt;font style=&quot;font-size: 8px&quot;&gt;Conv2d $$5\times5@64 $$&lt;/font&gt;" style="text;html=1;align=center;verticalAlign=middle;resizable=0;points=[];autosize=1;strokeColor=none;fillColor=none;" parent="1" vertex="1">
                    <mxGeometry x="150" y="1530" width="120" height="20" as="geometry"/>
                </mxCell>
                <mxCell id="2802" value="&lt;font style=&quot;font-size: 8px&quot;&gt;Conv2d $$5\times5@64 $$&lt;/font&gt;" style="text;html=1;align=center;verticalAlign=middle;resizable=0;points=[];autosize=1;strokeColor=none;fillColor=none;" parent="1" vertex="1">
                    <mxGeometry x="150" y="1450" width="120" height="20" as="geometry"/>
                </mxCell>
                <mxCell id="2803" value="$$16\times16@64$$" style="text;html=1;align=center;verticalAlign=middle;resizable=0;points=[];autosize=1;strokeColor=none;fillColor=none;" parent="1" vertex="1">
                    <mxGeometry x="140" y="1490" width="140" height="20" as="geometry"/>
                </mxCell>
                <mxCell id="2806" value="" style="endArrow=classic;html=1;fontSize=8;exitX=0.5;exitY=0;exitDx=0;exitDy=0;entryX=0.5;entryY=1;entryDx=0;entryDy=0;" parent="1" source="2798" edge="1" target="2809">
                    <mxGeometry width="50" height="50" relative="1" as="geometry">
                        <mxPoint x="390" y="1238" as="sourcePoint"/>
                        <mxPoint x="440" y="1188" as="targetPoint"/>
                    </mxGeometry>
                </mxCell>
                <mxCell id="2808" value="$$16\times16@64$$" style="text;html=1;align=center;verticalAlign=middle;resizable=0;points=[];autosize=1;strokeColor=none;fillColor=none;" parent="1" vertex="1">
                    <mxGeometry x="140" y="1410" width="140" height="20" as="geometry"/>
                </mxCell>
                <mxCell id="3563" style="edgeStyle=none;html=1;entryX=0.5;entryY=1;entryDx=0;entryDy=0;entryPerimeter=0;" edge="1" parent="1" source="2809" target="3561">
                    <mxGeometry relative="1" as="geometry"/>
                </mxCell>
                <mxCell id="2809" value="" style="rounded=0;whiteSpace=wrap;html=1;fillColor=none;" parent="1" vertex="1">
                    <mxGeometry x="430" y="1128" width="20" height="20" as="geometry"/>
                </mxCell>
                <mxCell id="2810" value="$$16\times16@64$$" style="text;html=1;align=center;verticalAlign=middle;resizable=0;points=[];autosize=1;strokeColor=none;fillColor=none;" parent="1" vertex="1">
                    <mxGeometry x="140" y="1330" width="140" height="20" as="geometry"/>
                </mxCell>
                <mxCell id="2812" value="&lt;font style=&quot;font-size: 8px&quot;&gt;Conv2d (2,2) $$5\times5@512 $$&lt;/font&gt;" style="text;html=1;align=center;verticalAlign=middle;resizable=0;points=[];autosize=1;strokeColor=none;fillColor=none;" parent="1" vertex="1">
                    <mxGeometry x="140" y="1290" width="150" height="20" as="geometry"/>
                </mxCell>
                <mxCell id="2813" value="$$8\times8@512$$" style="text;html=1;align=center;verticalAlign=middle;resizable=0;points=[];autosize=1;strokeColor=none;fillColor=none;" parent="1" vertex="1">
                    <mxGeometry x="145" y="1250" width="130" height="20" as="geometry"/>
                </mxCell>
                <mxCell id="3568" style="edgeStyle=none;html=1;entryX=0.5;entryY=1;entryDx=0;entryDy=0;rounded=0;" edge="1" parent="1" source="2814" target="2816">
                    <mxGeometry relative="1" as="geometry">
                        <Array as="points">
                            <mxPoint x="440" y="859.5"/>
                            <mxPoint x="445" y="859.5"/>
                        </Array>
                    </mxGeometry>
                </mxCell>
                <mxCell id="3579" style="edgeStyle=none;html=1;entryX=1;entryY=0.5;entryDx=0;entryDy=0;entryPerimeter=0;rounded=1;" edge="1" parent="1" source="2814" target="3516">
                    <mxGeometry relative="1" as="geometry">
                        <mxPoint x="480" y="580" as="targetPoint"/>
                        <Array as="points">
                            <mxPoint x="480" y="902"/>
                            <mxPoint x="480" y="580"/>
                        </Array>
                    </mxGeometry>
                </mxCell>
                <mxCell id="2814" value="" style="rounded=0;whiteSpace=wrap;html=1;fillColor=none;" parent="1" vertex="1">
                    <mxGeometry x="435" y="896.5" width="10" height="10" as="geometry"/>
                </mxCell>
                <mxCell id="2815" value="" style="rounded=0;whiteSpace=wrap;html=1;fillColor=none;" parent="1" vertex="1">
                    <mxGeometry x="430" y="814.5" width="10" height="10" as="geometry"/>
                </mxCell>
                <mxCell id="2816" value="" style="rounded=0;whiteSpace=wrap;html=1;fillColor=none;" parent="1" vertex="1">
                    <mxGeometry x="440" y="814.5" width="10" height="10" as="geometry"/>
                </mxCell>
                <mxCell id="2818" value="Concat" style="text;html=1;align=center;verticalAlign=middle;resizable=0;points=[];autosize=1;strokeColor=none;fillColor=none;fontSize=8;" parent="1" vertex="1">
                    <mxGeometry x="200" y="1210" width="40" height="20" as="geometry"/>
                </mxCell>
                <mxCell id="3572" style="edgeStyle=none;rounded=0;html=1;entryX=0.5;entryY=1;entryDx=0;entryDy=0;" edge="1" parent="1" source="2820" target="3571">
                    <mxGeometry relative="1" as="geometry"/>
                </mxCell>
                <mxCell id="2820" value="" style="rounded=0;whiteSpace=wrap;html=1;fillColor=none;" parent="1" vertex="1">
                    <mxGeometry x="435" y="734.5" width="10" height="10" as="geometry"/>
                </mxCell>
                <mxCell id="2821" value="&lt;font style=&quot;font-size: 8px&quot;&gt;Conv2d (2,1)$$5\times5@64 $$&lt;/font&gt;" style="text;html=1;align=center;verticalAlign=middle;resizable=0;points=[];autosize=1;strokeColor=none;fillColor=none;" parent="1" vertex="1">
                    <mxGeometry x="145" y="1130" width="140" height="20" as="geometry"/>
                </mxCell>
                <mxCell id="2822" value="$$16\times8@512$$" style="text;html=1;align=center;verticalAlign=middle;resizable=0;points=[];autosize=1;strokeColor=none;fillColor=none;" parent="1" vertex="1">
                    <mxGeometry x="140" y="1171" width="140" height="20" as="geometry"/>
                </mxCell>
                <mxCell id="2823" value="$$8\times8@512$$" style="text;html=1;align=center;verticalAlign=middle;resizable=0;points=[];autosize=1;strokeColor=none;fillColor=none;" parent="1" vertex="1">
                    <mxGeometry x="145" y="1091" width="130" height="20" as="geometry"/>
                </mxCell>
                <mxCell id="2824" value="&lt;font style=&quot;font-size: 8px&quot;&gt;Conv2d $$5\times5@64 $$&lt;/font&gt;" style="text;html=1;align=center;verticalAlign=middle;resizable=0;points=[];autosize=1;strokeColor=none;fillColor=none;" parent="1" vertex="1">
                    <mxGeometry x="155" y="885" width="120" height="20" as="geometry"/>
                </mxCell>
                <mxCell id="3526" style="edgeStyle=none;html=1;entryX=1;entryY=0.5;entryDx=0;entryDy=0;entryPerimeter=0;" parent="1" source="2826" target="3524" edge="1">
                    <mxGeometry relative="1" as="geometry">
                        <mxPoint x="460" y="305" as="targetPoint"/>
                        <Array as="points">
                            <mxPoint x="480" y="504"/>
                            <mxPoint x="480" y="265"/>
                        </Array>
                    </mxGeometry>
                </mxCell>
                <mxCell id="2826" value="" style="rounded=0;whiteSpace=wrap;html=1;fillColor=none;" parent="1" vertex="1">
                    <mxGeometry x="435" y="498.5" width="10" height="10" as="geometry"/>
                </mxCell>
                <mxCell id="2827" value="$$8\times8@512$$" style="text;html=1;align=center;verticalAlign=middle;resizable=0;points=[];autosize=1;strokeColor=none;fillColor=none;" parent="1" vertex="1">
                    <mxGeometry x="145" y="1011" width="130" height="20" as="geometry"/>
                </mxCell>
                <mxCell id="2830" value="" style="endArrow=classic;html=1;rounded=0;fontSize=8;endSize=3;strokeWidth=1;jumpSize=6;exitX=0.5;exitY=0;exitDx=0;exitDy=0;entryX=0.5;entryY=1;entryDx=0;entryDy=0;" parent="1" source="2826" target="3520" edge="1">
                    <mxGeometry width="50" height="50" relative="1" as="geometry">
                        <mxPoint x="390" y="522.5" as="sourcePoint"/>
                        <mxPoint x="440" y="472.5" as="targetPoint"/>
                    </mxGeometry>
                </mxCell>
                <mxCell id="2833" value="$$8\times8@512$$" style="text;html=1;align=center;verticalAlign=middle;resizable=0;points=[];autosize=1;strokeColor=none;fillColor=none;" parent="1" vertex="1">
                    <mxGeometry x="145" y="850" width="130" height="20" as="geometry"/>
                </mxCell>
                <mxCell id="2835" value="" style="rounded=0;whiteSpace=wrap;html=1;fillColor=none;" parent="1" vertex="1">
                    <mxGeometry x="400" y="180" width="80" height="10" as="geometry"/>
                </mxCell>
                <mxCell id="2836" value="32768" style="text;html=1;align=center;verticalAlign=middle;resizable=0;points=[];autosize=1;strokeColor=none;fillColor=none;" parent="1" vertex="1">
                    <mxGeometry x="190" y="735" width="50" height="20" as="geometry"/>
                </mxCell>
                <mxCell id="2837" value="Flatten&lt;br&gt;" style="text;html=1;align=center;verticalAlign=middle;resizable=0;points=[];autosize=1;strokeColor=none;fillColor=none;fontSize=8;" parent="1" vertex="1">
                    <mxGeometry x="197.5" y="755" width="40" height="20" as="geometry"/>
                </mxCell>
                <mxCell id="2838" value="" style="endArrow=classic;html=1;rounded=0;fontSize=8;endSize=3;strokeWidth=1;jumpSize=6;exitX=0.5;exitY=0;exitDx=0;exitDy=0;entryX=0.498;entryY=1.109;entryDx=0;entryDy=0;entryPerimeter=0;" parent="1" edge="1">
                    <mxGeometry width="50" height="50" relative="1" as="geometry">
                        <mxPoint x="440" y="180" as="sourcePoint"/>
                        <mxPoint x="440.0000000000001" y="150" as="targetPoint"/>
                    </mxGeometry>
                </mxCell>
                <mxCell id="2839" value="" style="rounded=0;whiteSpace=wrap;html=1;fillColor=none;" parent="1" vertex="1">
                    <mxGeometry x="420" y="135" width="40" height="10" as="geometry"/>
                </mxCell>
                <mxCell id="2840" value="Dense" style="text;html=1;align=center;verticalAlign=middle;resizable=0;points=[];autosize=1;strokeColor=none;fillColor=none;fontSize=8;" parent="1" vertex="1">
                    <mxGeometry x="195" y="715" width="40" height="20" as="geometry"/>
                </mxCell>
                <mxCell id="2841" value="64" style="text;html=1;align=center;verticalAlign=middle;resizable=0;points=[];autosize=1;strokeColor=none;fillColor=none;fontSize=8;" parent="1" vertex="1">
                    <mxGeometry x="200" y="690" width="30" height="20" as="geometry"/>
                </mxCell>
                <mxCell id="2842" value="" style="rounded=0;whiteSpace=wrap;html=1;fillColor=none;" parent="1" vertex="1">
                    <mxGeometry x="360" y="90" width="160" height="10" as="geometry"/>
                </mxCell>
                <mxCell id="2843" value="Dense" style="text;html=1;align=center;verticalAlign=middle;resizable=0;points=[];autosize=1;strokeColor=none;fillColor=none;fontSize=8;" parent="1" vertex="1">
                    <mxGeometry x="195" y="670" width="40" height="20" as="geometry"/>
                </mxCell>
                <mxCell id="2844" value="65536" style="text;html=1;align=center;verticalAlign=middle;resizable=0;points=[];autosize=1;strokeColor=none;fillColor=none;fontSize=8;" parent="1" vertex="1">
                    <mxGeometry x="195" y="645" width="40" height="20" as="geometry"/>
                </mxCell>
                <mxCell id="2845" value="" style="endArrow=classic;html=1;rounded=0;fontSize=8;endSize=3;strokeWidth=1;jumpSize=6;exitX=0.5;exitY=0;exitDx=0;exitDy=0;entryX=0.498;entryY=1.109;entryDx=0;entryDy=0;entryPerimeter=0;" parent="1" edge="1">
                    <mxGeometry width="50" height="50" relative="1" as="geometry">
                        <mxPoint x="440" y="135" as="sourcePoint"/>
                        <mxPoint x="440" y="105" as="targetPoint"/>
                    </mxGeometry>
                </mxCell>
                <mxCell id="2846" value="" style="rounded=0;whiteSpace=wrap;html=1;fillColor=none;" parent="1" vertex="1">
                    <mxGeometry x="600" y="3037.5" width="40" height="40" as="geometry"/>
                </mxCell>
                <mxCell id="2847" value="" style="rounded=0;whiteSpace=wrap;html=1;fillColor=none;" parent="1" vertex="1">
                    <mxGeometry x="640" y="3037.5" width="40" height="40" as="geometry"/>
                </mxCell>
                <mxCell id="2848" value="" style="endArrow=none;dashed=1;html=1;rounded=0;fontSize=8;endSize=3;strokeWidth=1;jumpSize=6;entryX=0;entryY=1;entryDx=0;entryDy=0;" parent="1" target="2630" edge="1">
                    <mxGeometry width="50" height="50" relative="1" as="geometry">
                        <mxPoint x="440" y="3117.5" as="sourcePoint"/>
                        <mxPoint x="470" y="3067.5" as="targetPoint"/>
                    </mxGeometry>
                </mxCell>
                <mxCell id="2849" value="" style="endArrow=none;dashed=1;html=1;rounded=0;fontSize=8;endSize=3;strokeWidth=1;jumpSize=6;entryX=0;entryY=1;entryDx=0;entryDy=0;" parent="1" edge="1">
                    <mxGeometry width="50" height="50" relative="1" as="geometry">
                        <mxPoint x="480" y="3117.5" as="sourcePoint"/>
                        <mxPoint x="440" y="3077.5" as="targetPoint"/>
                    </mxGeometry>
                </mxCell>
                <mxCell id="2850" value="" style="endArrow=none;dashed=1;html=1;rounded=0;fontSize=8;endSize=3;strokeWidth=1;jumpSize=6;entryX=0;entryY=1;entryDx=0;entryDy=0;" parent="1" edge="1">
                    <mxGeometry width="50" height="50" relative="1" as="geometry">
                        <mxPoint x="520" y="3117.5" as="sourcePoint"/>
                        <mxPoint x="480" y="3077.5" as="targetPoint"/>
                    </mxGeometry>
                </mxCell>
                <mxCell id="2857" value="" style="endArrow=none;dashed=1;html=1;rounded=0;fontSize=8;endSize=3;strokeWidth=1;jumpSize=6;entryX=0;entryY=1;entryDx=0;entryDy=0;" parent="1" target="2846" edge="1">
                    <mxGeometry width="50" height="50" relative="1" as="geometry">
                        <mxPoint x="460" y="3117.5" as="sourcePoint"/>
                        <mxPoint x="440" y="3077.5" as="targetPoint"/>
                    </mxGeometry>
                </mxCell>
                <mxCell id="2858" value="" style="endArrow=none;dashed=1;html=1;rounded=0;fontSize=8;endSize=3;strokeWidth=1;jumpSize=6;entryX=1;entryY=1;entryDx=0;entryDy=0;" parent="1" target="2846" edge="1">
                    <mxGeometry width="50" height="50" relative="1" as="geometry">
                        <mxPoint x="500" y="3117.5" as="sourcePoint"/>
                        <mxPoint x="480" y="3077.5" as="targetPoint"/>
                    </mxGeometry>
                </mxCell>
                <mxCell id="2859" value="" style="endArrow=none;dashed=1;html=1;rounded=0;fontSize=8;endSize=3;strokeWidth=1;jumpSize=6;entryX=1;entryY=1;entryDx=0;entryDy=0;" parent="1" target="2847" edge="1">
                    <mxGeometry width="50" height="50" relative="1" as="geometry">
                        <mxPoint x="540" y="3117.5" as="sourcePoint"/>
                        <mxPoint x="520" y="3077.5" as="targetPoint"/>
                    </mxGeometry>
                </mxCell>
                <mxCell id="3104" value="" style="rounded=0;whiteSpace=wrap;html=1;fillColor=none;" parent="1" vertex="1">
                    <mxGeometry x="580" y="2957.5" width="40" height="40" as="geometry"/>
                </mxCell>
                <mxCell id="3105" value="" style="rounded=0;whiteSpace=wrap;html=1;fillColor=none;" parent="1" vertex="1">
                    <mxGeometry x="660" y="2957.5" width="40" height="40" as="geometry"/>
                </mxCell>
                <mxCell id="3106" value="" style="endArrow=classic;html=1;" parent="1" edge="1">
                    <mxGeometry width="50" height="50" relative="1" as="geometry">
                        <mxPoint x="600" y="2957.5" as="sourcePoint"/>
                        <mxPoint x="600" y="2917.5" as="targetPoint"/>
                    </mxGeometry>
                </mxCell>
                <mxCell id="3107" value="" style="rounded=0;whiteSpace=wrap;html=1;fillColor=none;" parent="1" vertex="1">
                    <mxGeometry x="580" y="2877.5" width="40" height="40" as="geometry"/>
                </mxCell>
                <mxCell id="3108" value="" style="endArrow=classic;html=1;" parent="1" edge="1">
                    <mxGeometry width="50" height="50" relative="1" as="geometry">
                        <mxPoint x="600.0000000000002" y="2877.5" as="sourcePoint"/>
                        <mxPoint x="600.0000000000002" y="2837.5" as="targetPoint"/>
                    </mxGeometry>
                </mxCell>
                <mxCell id="3109" value="" style="edgeStyle=none;html=1;fontSize=8;" parent="1" source="3110" target="3112" edge="1">
                    <mxGeometry relative="1" as="geometry"/>
                </mxCell>
                <mxCell id="3110" value="" style="rounded=0;whiteSpace=wrap;html=1;fillColor=none;" parent="1" vertex="1">
                    <mxGeometry x="580" y="2797.5" width="40" height="40" as="geometry"/>
                </mxCell>
                <mxCell id="3111" value="" style="endArrow=classic;html=1;" parent="1" edge="1">
                    <mxGeometry width="50" height="50" relative="1" as="geometry">
                        <mxPoint x="600.0000000000002" y="2797.5" as="sourcePoint"/>
                        <mxPoint x="600.0000000000002" y="2757.5" as="targetPoint"/>
                    </mxGeometry>
                </mxCell>
                <mxCell id="3112" value="" style="rounded=0;whiteSpace=wrap;html=1;fillColor=none;" parent="1" vertex="1">
                    <mxGeometry x="580" y="2717.5" width="40" height="40" as="geometry"/>
                </mxCell>
                <mxCell id="3113" value="" style="endArrow=classic;html=1;" parent="1" edge="1">
                    <mxGeometry width="50" height="50" relative="1" as="geometry">
                        <mxPoint x="600" y="2667.5" as="sourcePoint"/>
                        <mxPoint x="600.0000000000002" y="2637.5" as="targetPoint"/>
                    </mxGeometry>
                </mxCell>
                <mxCell id="3114" value="" style="endArrow=classic;html=1;fontSize=8;" parent="1" edge="1">
                    <mxGeometry width="50" height="50" relative="1" as="geometry">
                        <mxPoint x="620" y="2897.5" as="sourcePoint"/>
                        <mxPoint x="610" y="2677.5" as="targetPoint"/>
                        <Array as="points">
                            <mxPoint x="640" y="2897.5"/>
                            <mxPoint x="640" y="2787.5"/>
                            <mxPoint x="640" y="2677.5"/>
                        </Array>
                    </mxGeometry>
                </mxCell>
                <mxCell id="3115" value="" style="verticalLabelPosition=bottom;verticalAlign=top;html=1;shape=mxgraph.flowchart.summing_function;fontSize=8;" parent="1" vertex="1">
                    <mxGeometry x="590" y="2667.5" width="20" height="20" as="geometry"/>
                </mxCell>
                <mxCell id="3116" value="" style="endArrow=classic;html=1;" parent="1" edge="1">
                    <mxGeometry width="50" height="50" relative="1" as="geometry">
                        <mxPoint x="600" y="2717.5" as="sourcePoint"/>
                        <mxPoint x="600.0000000000002" y="2687.5" as="targetPoint"/>
                    </mxGeometry>
                </mxCell>
                <mxCell id="3117" value="" style="rounded=0;whiteSpace=wrap;html=1;fillColor=none;" parent="1" vertex="1">
                    <mxGeometry x="580" y="2597.5" width="40" height="40" as="geometry"/>
                </mxCell>
                <mxCell id="3118" value="" style="endArrow=classic;html=1;" parent="1" edge="1">
                    <mxGeometry width="50" height="50" relative="1" as="geometry">
                        <mxPoint x="600.0000000000002" y="2597.5" as="sourcePoint"/>
                        <mxPoint x="600.0000000000002" y="2557.5" as="targetPoint"/>
                    </mxGeometry>
                </mxCell>
                <mxCell id="3119" value="" style="edgeStyle=none;html=1;fontSize=8;" parent="1" source="3120" target="3122" edge="1">
                    <mxGeometry relative="1" as="geometry"/>
                </mxCell>
                <mxCell id="3120" value="" style="rounded=0;whiteSpace=wrap;html=1;fillColor=none;" parent="1" vertex="1">
                    <mxGeometry x="580" y="2517.5" width="40" height="40" as="geometry"/>
                </mxCell>
                <mxCell id="3121" value="" style="endArrow=classic;html=1;" parent="1" edge="1">
                    <mxGeometry width="50" height="50" relative="1" as="geometry">
                        <mxPoint x="600.0000000000002" y="2517.5" as="sourcePoint"/>
                        <mxPoint x="600.0000000000002" y="2477.5" as="targetPoint"/>
                    </mxGeometry>
                </mxCell>
                <mxCell id="3122" value="" style="rounded=0;whiteSpace=wrap;html=1;fillColor=none;" parent="1" vertex="1">
                    <mxGeometry x="580" y="2437.5" width="40" height="40" as="geometry"/>
                </mxCell>
                <mxCell id="3123" value="" style="endArrow=classic;html=1;" parent="1" edge="1">
                    <mxGeometry width="50" height="50" relative="1" as="geometry">
                        <mxPoint x="600" y="2387.5" as="sourcePoint"/>
                        <mxPoint x="600.0000000000002" y="2357.5" as="targetPoint"/>
                    </mxGeometry>
                </mxCell>
                <mxCell id="3124" value="" style="endArrow=classic;html=1;fontSize=8;" parent="1" edge="1">
                    <mxGeometry width="50" height="50" relative="1" as="geometry">
                        <mxPoint x="620" y="2617.5" as="sourcePoint"/>
                        <mxPoint x="610" y="2397.5" as="targetPoint"/>
                        <Array as="points">
                            <mxPoint x="640" y="2617.5"/>
                            <mxPoint x="640" y="2397.5"/>
                        </Array>
                    </mxGeometry>
                </mxCell>
                <mxCell id="3125" value="" style="verticalLabelPosition=bottom;verticalAlign=top;html=1;shape=mxgraph.flowchart.summing_function;fontSize=8;" parent="1" vertex="1">
                    <mxGeometry x="590" y="2387.5" width="20" height="20" as="geometry"/>
                </mxCell>
                <mxCell id="3126" value="" style="endArrow=classic;html=1;" parent="1" edge="1">
                    <mxGeometry width="50" height="50" relative="1" as="geometry">
                        <mxPoint x="600" y="2437.5" as="sourcePoint"/>
                        <mxPoint x="600.0000000000002" y="2407.5" as="targetPoint"/>
                    </mxGeometry>
                </mxCell>
                <mxCell id="3127" value="" style="rounded=0;whiteSpace=wrap;html=1;fillColor=none;" parent="1" vertex="1">
                    <mxGeometry x="580" y="2317.5" width="40" height="40" as="geometry"/>
                </mxCell>
                <mxCell id="3128" value="" style="endArrow=classic;html=1;" parent="1" edge="1">
                    <mxGeometry width="50" height="50" relative="1" as="geometry">
                        <mxPoint x="600.0000000000002" y="2317.5" as="sourcePoint"/>
                        <mxPoint x="600.0000000000002" y="2277.5" as="targetPoint"/>
                    </mxGeometry>
                </mxCell>
                <mxCell id="3129" value="" style="edgeStyle=none;html=1;fontSize=8;" parent="1" source="3130" target="3132" edge="1">
                    <mxGeometry relative="1" as="geometry"/>
                </mxCell>
                <mxCell id="3130" value="" style="rounded=0;whiteSpace=wrap;html=1;fillColor=none;" parent="1" vertex="1">
                    <mxGeometry x="580" y="2237.5" width="40" height="40" as="geometry"/>
                </mxCell>
                <mxCell id="3131" value="" style="endArrow=classic;html=1;" parent="1" edge="1">
                    <mxGeometry width="50" height="50" relative="1" as="geometry">
                        <mxPoint x="600.0000000000002" y="2237.5" as="sourcePoint"/>
                        <mxPoint x="600.0000000000002" y="2197.5" as="targetPoint"/>
                    </mxGeometry>
                </mxCell>
                <mxCell id="3132" value="" style="rounded=0;whiteSpace=wrap;html=1;fillColor=none;" parent="1" vertex="1">
                    <mxGeometry x="580" y="2157.5" width="40" height="40" as="geometry"/>
                </mxCell>
                <mxCell id="3133" value="" style="endArrow=classic;html=1;" parent="1" edge="1">
                    <mxGeometry width="50" height="50" relative="1" as="geometry">
                        <mxPoint x="600" y="2107.5" as="sourcePoint"/>
                        <mxPoint x="600.0000000000002" y="2077.5" as="targetPoint"/>
                    </mxGeometry>
                </mxCell>
                <mxCell id="3134" value="" style="endArrow=classic;html=1;fontSize=8;" parent="1" edge="1">
                    <mxGeometry width="50" height="50" relative="1" as="geometry">
                        <mxPoint x="620" y="2337.5" as="sourcePoint"/>
                        <mxPoint x="610" y="2117.5" as="targetPoint"/>
                        <Array as="points">
                            <mxPoint x="640" y="2337.5"/>
                            <mxPoint x="640" y="2117.5"/>
                        </Array>
                    </mxGeometry>
                </mxCell>
                <mxCell id="3135" value="" style="verticalLabelPosition=bottom;verticalAlign=top;html=1;shape=mxgraph.flowchart.summing_function;fontSize=8;" parent="1" vertex="1">
                    <mxGeometry x="590" y="2107.5" width="20" height="20" as="geometry"/>
                </mxCell>
                <mxCell id="3136" value="" style="endArrow=classic;html=1;" parent="1" edge="1">
                    <mxGeometry width="50" height="50" relative="1" as="geometry">
                        <mxPoint x="600" y="2157.5" as="sourcePoint"/>
                        <mxPoint x="600.0000000000002" y="2127.5" as="targetPoint"/>
                    </mxGeometry>
                </mxCell>
                <mxCell id="3137" value="" style="rounded=0;whiteSpace=wrap;html=1;fillColor=none;" parent="1" vertex="1">
                    <mxGeometry x="580" y="2037.5" width="40" height="40" as="geometry"/>
                </mxCell>
                <mxCell id="3138" value="" style="endArrow=classic;html=1;entryX=0.5;entryY=1;entryDx=0;entryDy=0;" parent="1" target="3139" edge="1">
                    <mxGeometry width="50" height="50" relative="1" as="geometry">
                        <mxPoint x="600" y="2037.5" as="sourcePoint"/>
                        <mxPoint x="600" y="1997.5" as="targetPoint"/>
                    </mxGeometry>
                </mxCell>
                <mxCell id="3139" value="" style="rounded=0;whiteSpace=wrap;html=1;fillColor=none;" parent="1" vertex="1">
                    <mxGeometry x="590" y="1967.5" width="20" height="20" as="geometry"/>
                </mxCell>
                <mxCell id="3140" value="" style="rounded=0;whiteSpace=wrap;html=1;fillColor=none;" parent="1" vertex="1">
                    <mxGeometry x="660" y="2877.5" width="40" height="40" as="geometry"/>
                </mxCell>
                <mxCell id="3141" value="" style="endArrow=classic;html=1;" parent="1" edge="1">
                    <mxGeometry width="50" height="50" relative="1" as="geometry">
                        <mxPoint x="680.0000000000002" y="2877.5" as="sourcePoint"/>
                        <mxPoint x="680.0000000000002" y="2837.5" as="targetPoint"/>
                    </mxGeometry>
                </mxCell>
                <mxCell id="3142" value="" style="edgeStyle=none;html=1;fontSize=8;" parent="1" source="3143" target="3145" edge="1">
                    <mxGeometry relative="1" as="geometry"/>
                </mxCell>
                <mxCell id="3143" value="" style="rounded=0;whiteSpace=wrap;html=1;fillColor=none;" parent="1" vertex="1">
                    <mxGeometry x="660" y="2797.5" width="40" height="40" as="geometry"/>
                </mxCell>
                <mxCell id="3144" value="" style="endArrow=classic;html=1;" parent="1" edge="1">
                    <mxGeometry width="50" height="50" relative="1" as="geometry">
                        <mxPoint x="680.0000000000002" y="2797.5" as="sourcePoint"/>
                        <mxPoint x="680.0000000000002" y="2757.5" as="targetPoint"/>
                    </mxGeometry>
                </mxCell>
                <mxCell id="3145" value="" style="rounded=0;whiteSpace=wrap;html=1;fillColor=none;" parent="1" vertex="1">
                    <mxGeometry x="660" y="2717.5" width="40" height="40" as="geometry"/>
                </mxCell>
                <mxCell id="3146" value="" style="endArrow=classic;html=1;" parent="1" edge="1">
                    <mxGeometry width="50" height="50" relative="1" as="geometry">
                        <mxPoint x="680" y="2667.5" as="sourcePoint"/>
                        <mxPoint x="680.0000000000002" y="2637.5" as="targetPoint"/>
                    </mxGeometry>
                </mxCell>
                <mxCell id="3147" value="" style="endArrow=classic;html=1;fontSize=8;" parent="1" edge="1">
                    <mxGeometry width="50" height="50" relative="1" as="geometry">
                        <mxPoint x="700" y="2897.5" as="sourcePoint"/>
                        <mxPoint x="690" y="2677.5" as="targetPoint"/>
                        <Array as="points">
                            <mxPoint x="720" y="2897.5"/>
                            <mxPoint x="720" y="2787.5"/>
                            <mxPoint x="720" y="2677.5"/>
                        </Array>
                    </mxGeometry>
                </mxCell>
                <mxCell id="3148" value="" style="verticalLabelPosition=bottom;verticalAlign=top;html=1;shape=mxgraph.flowchart.summing_function;fontSize=8;" parent="1" vertex="1">
                    <mxGeometry x="670" y="2667.5" width="20" height="20" as="geometry"/>
                </mxCell>
                <mxCell id="3149" value="" style="endArrow=classic;html=1;" parent="1" edge="1">
                    <mxGeometry width="50" height="50" relative="1" as="geometry">
                        <mxPoint x="680" y="2717.5" as="sourcePoint"/>
                        <mxPoint x="680.0000000000002" y="2687.5" as="targetPoint"/>
                    </mxGeometry>
                </mxCell>
                <mxCell id="3150" value="" style="rounded=0;whiteSpace=wrap;html=1;fillColor=none;" parent="1" vertex="1">
                    <mxGeometry x="660" y="2597.5" width="40" height="40" as="geometry"/>
                </mxCell>
                <mxCell id="3151" value="" style="endArrow=classic;html=1;" parent="1" edge="1">
                    <mxGeometry width="50" height="50" relative="1" as="geometry">
                        <mxPoint x="680.0000000000002" y="2597.5" as="sourcePoint"/>
                        <mxPoint x="680.0000000000002" y="2557.5" as="targetPoint"/>
                    </mxGeometry>
                </mxCell>
                <mxCell id="3152" value="" style="edgeStyle=none;html=1;fontSize=8;" parent="1" source="3153" target="3155" edge="1">
                    <mxGeometry relative="1" as="geometry"/>
                </mxCell>
                <mxCell id="3153" value="" style="rounded=0;whiteSpace=wrap;html=1;fillColor=none;" parent="1" vertex="1">
                    <mxGeometry x="660" y="2517.5" width="40" height="40" as="geometry"/>
                </mxCell>
                <mxCell id="3154" value="" style="endArrow=classic;html=1;" parent="1" edge="1">
                    <mxGeometry width="50" height="50" relative="1" as="geometry">
                        <mxPoint x="680.0000000000002" y="2517.5" as="sourcePoint"/>
                        <mxPoint x="680.0000000000002" y="2477.5" as="targetPoint"/>
                    </mxGeometry>
                </mxCell>
                <mxCell id="3155" value="" style="rounded=0;whiteSpace=wrap;html=1;fillColor=none;" parent="1" vertex="1">
                    <mxGeometry x="660" y="2437.5" width="40" height="40" as="geometry"/>
                </mxCell>
                <mxCell id="3156" value="" style="endArrow=classic;html=1;" parent="1" edge="1">
                    <mxGeometry width="50" height="50" relative="1" as="geometry">
                        <mxPoint x="680" y="2387.5" as="sourcePoint"/>
                        <mxPoint x="680.0000000000002" y="2357.5" as="targetPoint"/>
                    </mxGeometry>
                </mxCell>
                <mxCell id="3157" value="" style="endArrow=classic;html=1;fontSize=8;" parent="1" edge="1">
                    <mxGeometry width="50" height="50" relative="1" as="geometry">
                        <mxPoint x="700" y="2617.5" as="sourcePoint"/>
                        <mxPoint x="690" y="2397.5" as="targetPoint"/>
                        <Array as="points">
                            <mxPoint x="720" y="2617.5"/>
                            <mxPoint x="720" y="2397.5"/>
                        </Array>
                    </mxGeometry>
                </mxCell>
                <mxCell id="3158" value="" style="verticalLabelPosition=bottom;verticalAlign=top;html=1;shape=mxgraph.flowchart.summing_function;fontSize=8;" parent="1" vertex="1">
                    <mxGeometry x="670" y="2387.5" width="20" height="20" as="geometry"/>
                </mxCell>
                <mxCell id="3159" value="" style="endArrow=classic;html=1;" parent="1" edge="1">
                    <mxGeometry width="50" height="50" relative="1" as="geometry">
                        <mxPoint x="680" y="2437.5" as="sourcePoint"/>
                        <mxPoint x="680.0000000000002" y="2407.5" as="targetPoint"/>
                    </mxGeometry>
                </mxCell>
                <mxCell id="3160" value="" style="rounded=0;whiteSpace=wrap;html=1;fillColor=none;" parent="1" vertex="1">
                    <mxGeometry x="660" y="2317.5" width="40" height="40" as="geometry"/>
                </mxCell>
                <mxCell id="3161" value="" style="endArrow=classic;html=1;" parent="1" edge="1">
                    <mxGeometry width="50" height="50" relative="1" as="geometry">
                        <mxPoint x="680.0000000000002" y="2317.5" as="sourcePoint"/>
                        <mxPoint x="680.0000000000002" y="2277.5" as="targetPoint"/>
                    </mxGeometry>
                </mxCell>
                <mxCell id="3162" value="" style="edgeStyle=none;html=1;fontSize=8;" parent="1" source="3163" target="3165" edge="1">
                    <mxGeometry relative="1" as="geometry"/>
                </mxCell>
                <mxCell id="3163" value="" style="rounded=0;whiteSpace=wrap;html=1;fillColor=none;" parent="1" vertex="1">
                    <mxGeometry x="660" y="2237.5" width="40" height="40" as="geometry"/>
                </mxCell>
                <mxCell id="3164" value="" style="endArrow=classic;html=1;" parent="1" edge="1">
                    <mxGeometry width="50" height="50" relative="1" as="geometry">
                        <mxPoint x="680.0000000000002" y="2237.5" as="sourcePoint"/>
                        <mxPoint x="680.0000000000002" y="2197.5" as="targetPoint"/>
                    </mxGeometry>
                </mxCell>
                <mxCell id="3165" value="" style="rounded=0;whiteSpace=wrap;html=1;fillColor=none;" parent="1" vertex="1">
                    <mxGeometry x="660" y="2157.5" width="40" height="40" as="geometry"/>
                </mxCell>
                <mxCell id="3166" value="" style="endArrow=classic;html=1;" parent="1" edge="1">
                    <mxGeometry width="50" height="50" relative="1" as="geometry">
                        <mxPoint x="680" y="2107.5" as="sourcePoint"/>
                        <mxPoint x="680.0000000000002" y="2077.5" as="targetPoint"/>
                    </mxGeometry>
                </mxCell>
                <mxCell id="3167" value="" style="endArrow=classic;html=1;fontSize=8;" parent="1" edge="1">
                    <mxGeometry width="50" height="50" relative="1" as="geometry">
                        <mxPoint x="700" y="2337.5" as="sourcePoint"/>
                        <mxPoint x="690" y="2117.5" as="targetPoint"/>
                        <Array as="points">
                            <mxPoint x="720" y="2337.5"/>
                            <mxPoint x="720" y="2117.5"/>
                        </Array>
                    </mxGeometry>
                </mxCell>
                <mxCell id="3168" value="" style="verticalLabelPosition=bottom;verticalAlign=top;html=1;shape=mxgraph.flowchart.summing_function;fontSize=8;" parent="1" vertex="1">
                    <mxGeometry x="670" y="2107.5" width="20" height="20" as="geometry"/>
                </mxCell>
                <mxCell id="3169" value="" style="endArrow=classic;html=1;" parent="1" edge="1">
                    <mxGeometry width="50" height="50" relative="1" as="geometry">
                        <mxPoint x="680" y="2157.5" as="sourcePoint"/>
                        <mxPoint x="680.0000000000002" y="2127.5" as="targetPoint"/>
                    </mxGeometry>
                </mxCell>
                <mxCell id="3170" value="" style="rounded=0;whiteSpace=wrap;html=1;fillColor=none;" parent="1" vertex="1">
                    <mxGeometry x="660" y="2037.5" width="40" height="40" as="geometry"/>
                </mxCell>
                <mxCell id="3171" value="" style="endArrow=classic;html=1;entryX=0.5;entryY=1;entryDx=0;entryDy=0;" parent="1" target="3172" edge="1">
                    <mxGeometry width="50" height="50" relative="1" as="geometry">
                        <mxPoint x="680" y="2037.5" as="sourcePoint"/>
                        <mxPoint x="680" y="1997.5" as="targetPoint"/>
                    </mxGeometry>
                </mxCell>
                <mxCell id="3172" value="" style="rounded=0;whiteSpace=wrap;html=1;fillColor=none;" parent="1" vertex="1">
                    <mxGeometry x="670" y="1967.5" width="20" height="20" as="geometry"/>
                </mxCell>
                <mxCell id="3173" value="" style="endArrow=classic;html=1;" parent="1" edge="1">
                    <mxGeometry width="50" height="50" relative="1" as="geometry">
                        <mxPoint x="680" y="2957.5" as="sourcePoint"/>
                        <mxPoint x="680" y="2917.5" as="targetPoint"/>
                    </mxGeometry>
                </mxCell>
                <mxCell id="3174" value="" style="rounded=0;whiteSpace=wrap;html=1;fillColor=none;" parent="1" vertex="1">
                    <mxGeometry x="620" y="1887.5" width="20" height="20" as="geometry"/>
                </mxCell>
                <mxCell id="3175" value="" style="rounded=0;whiteSpace=wrap;html=1;fillColor=none;" parent="1" vertex="1">
                    <mxGeometry x="640" y="1887.5" width="20" height="20" as="geometry"/>
                </mxCell>
                <mxCell id="3176" value="" style="endArrow=none;html=1;fontSize=8;entryX=0;entryY=1;entryDx=0;entryDy=0;" parent="1" target="3174" edge="1">
                    <mxGeometry width="50" height="50" relative="1" as="geometry">
                        <mxPoint x="590" y="1967.5" as="sourcePoint"/>
                        <mxPoint x="640" y="1917.5" as="targetPoint"/>
                    </mxGeometry>
                </mxCell>
                <mxCell id="3177" value="" style="endArrow=none;html=1;fontSize=8;entryX=0;entryY=1;entryDx=0;entryDy=0;" parent="1" edge="1">
                    <mxGeometry width="50" height="50" relative="1" as="geometry">
                        <mxPoint x="610" y="1967.5" as="sourcePoint"/>
                        <mxPoint x="640" y="1907.5" as="targetPoint"/>
                    </mxGeometry>
                </mxCell>
                <mxCell id="3178" value="" style="endArrow=none;html=1;fontSize=8;entryX=0;entryY=1;entryDx=0;entryDy=0;exitX=0;exitY=0;exitDx=0;exitDy=0;" parent="1" source="3172" target="3175" edge="1">
                    <mxGeometry width="50" height="50" relative="1" as="geometry">
                        <mxPoint x="630.0000000000001" y="1967.5" as="sourcePoint"/>
                        <mxPoint x="660.0000000000001" y="1907.5" as="targetPoint"/>
                    </mxGeometry>
                </mxCell>
                <mxCell id="3179" value="" style="endArrow=none;html=1;fontSize=8;entryX=0;entryY=1;entryDx=0;entryDy=0;exitX=0;exitY=0;exitDx=0;exitDy=0;" parent="1" edge="1">
                    <mxGeometry width="50" height="50" relative="1" as="geometry">
                        <mxPoint x="690" y="1967.5" as="sourcePoint"/>
                        <mxPoint x="660" y="1907.5" as="targetPoint"/>
                    </mxGeometry>
                </mxCell>
                <mxCell id="3181" value="" style="rounded=0;whiteSpace=wrap;html=1;fillColor=none;" parent="1" vertex="1">
                    <mxGeometry x="630" y="1807.5" width="20" height="20" as="geometry"/>
                </mxCell>
                <mxCell id="3182" value="" style="rounded=0;whiteSpace=wrap;html=1;fillColor=none;" parent="1" vertex="1">
                    <mxGeometry x="630" y="1727.5" width="20" height="20" as="geometry"/>
                </mxCell>
                <mxCell id="3183" value="" style="endArrow=classic;html=1;fontSize=8;entryX=0.5;entryY=1;entryDx=0;entryDy=0;" parent="1" target="3182" edge="1">
                    <mxGeometry width="50" height="50" relative="1" as="geometry">
                        <mxPoint x="640" y="1807.5" as="sourcePoint"/>
                        <mxPoint x="640" y="1787.5" as="targetPoint"/>
                    </mxGeometry>
                </mxCell>
                <mxCell id="3184" value="" style="rounded=0;whiteSpace=wrap;html=1;fillColor=none;" parent="1" vertex="1">
                    <mxGeometry x="630" y="1647.5" width="20" height="20" as="geometry"/>
                </mxCell>
                <mxCell id="3185" value="" style="endArrow=classic;html=1;fontSize=8;entryX=0.5;entryY=1;entryDx=0;entryDy=0;" parent="1" target="3184" edge="1">
                    <mxGeometry width="50" height="50" relative="1" as="geometry">
                        <mxPoint x="640" y="1727.5" as="sourcePoint"/>
                        <mxPoint x="640" y="1707.5" as="targetPoint"/>
                        <Array as="points">
                            <mxPoint x="640" y="1687.5"/>
                        </Array>
                    </mxGeometry>
                </mxCell>
                <mxCell id="3186" value="" style="verticalLabelPosition=bottom;verticalAlign=top;html=1;shape=mxgraph.flowchart.summing_function;fontSize=8;" parent="1" vertex="1">
                    <mxGeometry x="630" y="1607.5" width="20" height="20" as="geometry"/>
                </mxCell>
                <mxCell id="3187" value="" style="endArrow=classic;html=1;fontSize=8;entryX=1;entryY=0.5;entryDx=0;entryDy=0;entryPerimeter=0;" parent="1" target="3186" edge="1">
                    <mxGeometry width="50" height="50" relative="1" as="geometry">
                        <mxPoint x="650" y="1817.5" as="sourcePoint"/>
                        <mxPoint x="680" y="1617.5" as="targetPoint"/>
                        <Array as="points">
                            <mxPoint x="680" y="1817.5"/>
                            <mxPoint x="680" y="1617.5"/>
                        </Array>
                    </mxGeometry>
                </mxCell>
                <mxCell id="3188" value="" style="endArrow=classic;html=1;fontSize=8;exitX=0.5;exitY=0;exitDx=0;exitDy=0;" parent="1" source="3184" edge="1">
                    <mxGeometry width="50" height="50" relative="1" as="geometry">
                        <mxPoint x="590" y="1677.5" as="sourcePoint"/>
                        <mxPoint x="640" y="1627.5" as="targetPoint"/>
                    </mxGeometry>
                </mxCell>
                <mxCell id="3189" value="" style="endArrow=classic;html=1;fontSize=8;exitX=0.5;exitY=0;exitDx=0;exitDy=0;" parent="1" edge="1">
                    <mxGeometry width="50" height="50" relative="1" as="geometry">
                        <mxPoint x="639.8299999999999" y="1607.5" as="sourcePoint"/>
                        <mxPoint x="639.8299999999999" y="1587.5" as="targetPoint"/>
                    </mxGeometry>
                </mxCell>
                <mxCell id="3190" value="" style="rounded=0;whiteSpace=wrap;html=1;fillColor=none;" parent="1" vertex="1">
                    <mxGeometry x="630" y="1567.5" width="20" height="20" as="geometry"/>
                </mxCell>
                <mxCell id="3191" value="" style="rounded=0;whiteSpace=wrap;html=1;fillColor=none;" parent="1" vertex="1">
                    <mxGeometry x="630" y="1487.5" width="20" height="20" as="geometry"/>
                </mxCell>
                <mxCell id="3192" value="" style="endArrow=classic;html=1;fontSize=8;entryX=0.5;entryY=1;entryDx=0;entryDy=0;" parent="1" target="3191" edge="1">
                    <mxGeometry width="50" height="50" relative="1" as="geometry">
                        <mxPoint x="640" y="1567.5" as="sourcePoint"/>
                        <mxPoint x="640" y="1547.5" as="targetPoint"/>
                    </mxGeometry>
                </mxCell>
                <mxCell id="3193" value="" style="rounded=0;whiteSpace=wrap;html=1;fillColor=none;" parent="1" vertex="1">
                    <mxGeometry x="630" y="1407.5" width="20" height="20" as="geometry"/>
                </mxCell>
                <mxCell id="3194" value="" style="endArrow=classic;html=1;fontSize=8;entryX=0.5;entryY=1;entryDx=0;entryDy=0;" parent="1" target="3193" edge="1">
                    <mxGeometry width="50" height="50" relative="1" as="geometry">
                        <mxPoint x="640" y="1487.5" as="sourcePoint"/>
                        <mxPoint x="640" y="1467.5" as="targetPoint"/>
                        <Array as="points">
                            <mxPoint x="640" y="1447.5"/>
                        </Array>
                    </mxGeometry>
                </mxCell>
                <mxCell id="3195" value="" style="verticalLabelPosition=bottom;verticalAlign=top;html=1;shape=mxgraph.flowchart.summing_function;fontSize=8;" parent="1" vertex="1">
                    <mxGeometry x="630" y="1367.5" width="20" height="20" as="geometry"/>
                </mxCell>
                <mxCell id="3196" value="" style="endArrow=classic;html=1;fontSize=8;entryX=1;entryY=0.5;entryDx=0;entryDy=0;entryPerimeter=0;" parent="1" target="3195" edge="1">
                    <mxGeometry width="50" height="50" relative="1" as="geometry">
                        <mxPoint x="650" y="1577.5" as="sourcePoint"/>
                        <mxPoint x="680" y="1377.5" as="targetPoint"/>
                        <Array as="points">
                            <mxPoint x="680" y="1577.5"/>
                            <mxPoint x="680" y="1377.5"/>
                        </Array>
                    </mxGeometry>
                </mxCell>
                <mxCell id="3197" value="" style="endArrow=classic;html=1;fontSize=8;exitX=0.5;exitY=0;exitDx=0;exitDy=0;" parent="1" source="3193" edge="1">
                    <mxGeometry width="50" height="50" relative="1" as="geometry">
                        <mxPoint x="590" y="1437.5" as="sourcePoint"/>
                        <mxPoint x="640" y="1387.4999999999998" as="targetPoint"/>
                    </mxGeometry>
                </mxCell>
                <mxCell id="3198" value="" style="endArrow=classic;html=1;fontSize=8;exitX=0.5;exitY=0;exitDx=0;exitDy=0;" parent="1" edge="1">
                    <mxGeometry width="50" height="50" relative="1" as="geometry">
                        <mxPoint x="639.8299999999999" y="1367.4999999999998" as="sourcePoint"/>
                        <mxPoint x="639.8299999999999" y="1347.4999999999998" as="targetPoint"/>
                    </mxGeometry>
                </mxCell>
                <mxCell id="3199" value="" style="rounded=0;whiteSpace=wrap;html=1;fillColor=none;" parent="1" vertex="1">
                    <mxGeometry x="630" y="1327.5" width="20" height="20" as="geometry"/>
                </mxCell>
                <mxCell id="3200" value="" style="endArrow=classic;html=1;fontSize=8;entryX=0.5;entryY=1;entryDx=0;entryDy=0;strokeWidth=1;jumpSize=6;endSize=3;" parent="1" target="3202" edge="1">
                    <mxGeometry width="50" height="50" relative="1" as="geometry">
                        <mxPoint x="639.53" y="1327.4999999999998" as="sourcePoint"/>
                        <mxPoint x="639.53" y="1267.5" as="targetPoint"/>
                        <Array as="points">
                            <mxPoint x="639.53" y="1287.5"/>
                        </Array>
                    </mxGeometry>
                </mxCell>
                <mxCell id="3201" style="edgeStyle=none;jumpSize=6;html=1;fontSize=8;endSize=3;strokeWidth=1;" parent="1" source="3202" edge="1">
                    <mxGeometry relative="1" as="geometry">
                        <mxPoint x="650" y="1060" as="targetPoint"/>
                        <Array as="points">
                            <mxPoint x="680" y="1257.5"/>
                            <mxPoint x="680" y="1060"/>
                        </Array>
                    </mxGeometry>
                </mxCell>
                <mxCell id="3202" value="" style="rounded=0;whiteSpace=wrap;html=1;fillColor=none;" parent="1" vertex="1">
                    <mxGeometry x="635" y="1252.5" width="10" height="10" as="geometry"/>
                </mxCell>
                <mxCell id="3203" value="" style="rounded=0;whiteSpace=wrap;html=1;fillColor=none;" parent="1" vertex="1">
                    <mxGeometry x="630" y="1172.5" width="10" height="10" as="geometry"/>
                </mxCell>
                <mxCell id="3204" value="" style="rounded=0;whiteSpace=wrap;html=1;fillColor=none;" parent="1" vertex="1">
                    <mxGeometry x="640" y="1172.5" width="10" height="10" as="geometry"/>
                </mxCell>
                <mxCell id="3205" value="" style="endArrow=none;html=1;fontSize=8;endSize=3;strokeWidth=1;jumpSize=6;entryX=0.5;entryY=1;entryDx=0;entryDy=0;exitX=0.5;exitY=0;exitDx=0;exitDy=0;rounded=0;" parent="1" source="3202" target="3204" edge="1">
                    <mxGeometry width="50" height="50" relative="1" as="geometry">
                        <mxPoint x="645" y="1252.5" as="sourcePoint"/>
                        <mxPoint x="695" y="1202.5" as="targetPoint"/>
                        <Array as="points">
                            <mxPoint x="640" y="1217.5"/>
                            <mxPoint x="645" y="1217.5"/>
                        </Array>
                    </mxGeometry>
                </mxCell>
                <mxCell id="3206" value="" style="endArrow=classic;html=1;fontSize=8;entryX=0.5;entryY=1;entryDx=0;entryDy=0;strokeWidth=1;jumpSize=6;endSize=3;" parent="1" edge="1">
                    <mxGeometry width="50" height="50" relative="1" as="geometry">
                        <mxPoint x="640" y="1173.5" as="sourcePoint"/>
                        <mxPoint x="640" y="1103.5" as="targetPoint"/>
                        <Array as="points">
                            <mxPoint x="640" y="1133.5"/>
                        </Array>
                    </mxGeometry>
                </mxCell>
                <mxCell id="3222" value="" style="endArrow=none;html=1;entryX=0;entryY=1;entryDx=0;entryDy=0;" parent="1" target="3104" edge="1">
                    <mxGeometry width="50" height="50" relative="1" as="geometry">
                        <mxPoint x="600" y="3037.5" as="sourcePoint"/>
                        <mxPoint x="650" y="2987.5" as="targetPoint"/>
                    </mxGeometry>
                </mxCell>
                <mxCell id="3223" value="" style="endArrow=none;html=1;entryX=0;entryY=1;entryDx=0;entryDy=0;" parent="1" edge="1">
                    <mxGeometry width="50" height="50" relative="1" as="geometry">
                        <mxPoint x="640" y="3037.5" as="sourcePoint"/>
                        <mxPoint x="620" y="2997.5" as="targetPoint"/>
                    </mxGeometry>
                </mxCell>
                <mxCell id="3224" value="" style="endArrow=none;html=1;entryX=0;entryY=1;entryDx=0;entryDy=0;exitX=0;exitY=0;exitDx=0;exitDy=0;" parent="1" edge="1">
                    <mxGeometry width="50" height="50" relative="1" as="geometry">
                        <mxPoint x="640" y="3037.5" as="sourcePoint"/>
                        <mxPoint x="660" y="2997.5" as="targetPoint"/>
                    </mxGeometry>
                </mxCell>
                <mxCell id="3225" value="" style="endArrow=none;html=1;entryX=0;entryY=1;entryDx=0;entryDy=0;exitX=0;exitY=0;exitDx=0;exitDy=0;" parent="1" edge="1">
                    <mxGeometry width="50" height="50" relative="1" as="geometry">
                        <mxPoint x="680" y="3037.5" as="sourcePoint"/>
                        <mxPoint x="700" y="2997.5" as="targetPoint"/>
                    </mxGeometry>
                </mxCell>
                <mxCell id="3489" value="" style="endArrow=classic;html=1;fontSize=8;exitX=0;exitY=0.5;exitDx=0;exitDy=0;entryX=0;entryY=0.5;entryDx=0;entryDy=0;entryPerimeter=0;" parent="1" source="2732" target="3576" edge="1">
                    <mxGeometry width="50" height="50" relative="1" as="geometry">
                        <mxPoint x="320" y="2037.5" as="sourcePoint"/>
                        <mxPoint x="430" y="1780" as="targetPoint"/>
                        <Array as="points">
                            <mxPoint x="360" y="1978"/>
                            <mxPoint x="360" y="1700"/>
                        </Array>
                    </mxGeometry>
                </mxCell>
                <mxCell id="3493" style="edgeStyle=none;rounded=0;jumpSize=6;html=1;entryX=0.5;entryY=1;entryDx=0;entryDy=0;fontSize=8;endSize=3;strokeWidth=1;exitX=0;exitY=0;exitDx=0;exitDy=0;" parent="1" source="2769" target="2777" edge="1">
                    <mxGeometry relative="1" as="geometry">
                        <mxPoint x="440" y="1850" as="sourcePoint"/>
                    </mxGeometry>
                </mxCell>
                <mxCell id="3495" value="" style="verticalLabelPosition=bottom;verticalAlign=top;html=1;shape=mxgraph.flowchart.summing_function;fontSize=8;" parent="1" vertex="1">
                    <mxGeometry x="630" y="1852.5" width="20" height="20" as="geometry"/>
                </mxCell>
                <mxCell id="3496" style="edgeStyle=none;rounded=0;jumpSize=6;html=1;entryX=0;entryY=0;entryDx=0;entryDy=0;fontSize=8;endSize=3;strokeWidth=1;endArrow=none;endFill=0;startArrow=classic;startFill=1;" parent="1" source="3495" edge="1">
                    <mxGeometry relative="1" as="geometry">
                        <mxPoint x="640" y="1890" as="targetPoint"/>
                    </mxGeometry>
                </mxCell>
                <mxCell id="3497" style="edgeStyle=none;rounded=0;jumpSize=6;html=1;entryX=0.5;entryY=1;entryDx=0;entryDy=0;fontSize=8;endSize=3;strokeWidth=1;" parent="1" source="3495" edge="1">
                    <mxGeometry relative="1" as="geometry">
                        <mxPoint x="640" y="1830" as="targetPoint"/>
                    </mxGeometry>
                </mxCell>
                <mxCell id="3498" value="" style="endArrow=classic;html=1;fontSize=8;exitX=0;exitY=0.5;exitDx=0;exitDy=0;entryX=0;entryY=0.5;entryDx=0;entryDy=0;entryPerimeter=0;" parent="1" target="3495" edge="1">
                    <mxGeometry width="50" height="50" relative="1" as="geometry">
                        <mxPoint x="580" y="2060" as="sourcePoint"/>
                        <mxPoint x="560" y="1862.5" as="targetPoint"/>
                        <Array as="points">
                            <mxPoint x="560" y="2060.5"/>
                            <mxPoint x="560" y="1862.5"/>
                        </Array>
                    </mxGeometry>
                </mxCell>
                <mxCell id="3500" value="" style="rounded=0;whiteSpace=wrap;html=1;fillColor=none;" parent="1" vertex="1">
                    <mxGeometry x="1080" y="1840" width="40" height="40" as="geometry"/>
                </mxCell>
                <mxCell id="3501" value="" style="rounded=0;whiteSpace=wrap;html=1;fillColor=none;" parent="1" vertex="1">
                    <mxGeometry x="1160" y="1840" width="40" height="40" as="geometry"/>
                </mxCell>
                <mxCell id="3502" value="" style="endArrow=classic;html=1;rounded=0;fontSize=8;endSize=3;strokeWidth=1;jumpSize=6;" parent="1" edge="1">
                    <mxGeometry width="50" height="50" relative="1" as="geometry">
                        <mxPoint x="1100" y="1840" as="sourcePoint"/>
                        <mxPoint x="1140" y="1800" as="targetPoint"/>
                    </mxGeometry>
                </mxCell>
                <mxCell id="3503" value="" style="endArrow=classic;html=1;rounded=0;fontSize=8;endSize=3;strokeWidth=1;jumpSize=6;exitX=0.5;exitY=0;exitDx=0;exitDy=0;entryX=0.5;entryY=1;entryDx=0;entryDy=0;" parent="1" source="3501" target="3506" edge="1">
                    <mxGeometry width="50" height="50" relative="1" as="geometry">
                        <mxPoint x="1110" y="1851.25" as="sourcePoint"/>
                        <mxPoint x="1180" y="1801" as="targetPoint"/>
                        <Array as="points">
                            <mxPoint x="1160" y="1820"/>
                        </Array>
                    </mxGeometry>
                </mxCell>
                <mxCell id="3505" value="" style="endArrow=classic;html=1;rounded=0;fontSize=8;endSize=3;strokeWidth=1;jumpSize=6;exitX=0.5;exitY=0;exitDx=0;exitDy=0;entryX=0.5;entryY=1;entryDx=0;entryDy=0;" parent="1" source="3500" target="3506" edge="1">
                    <mxGeometry width="50" height="50" relative="1" as="geometry">
                        <mxPoint x="1070" y="1828.75" as="sourcePoint"/>
                        <mxPoint x="1120" y="1778.75" as="targetPoint"/>
                        <Array as="points">
                            <mxPoint x="1100" y="1800"/>
                        </Array>
                    </mxGeometry>
                </mxCell>
                <mxCell id="3506" value="" style="ellipse;whiteSpace=wrap;html=1;fontSize=8;" parent="1" vertex="1">
                    <mxGeometry x="1120" y="1760" width="40" height="40" as="geometry"/>
                </mxCell>
                <mxCell id="3508" value="" style="ellipse;whiteSpace=wrap;html=1;fontSize=8;" parent="1" vertex="1">
                    <mxGeometry x="1120" y="1640" width="40" height="40" as="geometry"/>
                </mxCell>
                <mxCell id="3509" value="" style="endArrow=classic;html=1;rounded=0;fontSize=8;endSize=3;strokeWidth=1;jumpSize=6;" parent="1" edge="1">
                    <mxGeometry width="50" height="50" relative="1" as="geometry">
                        <mxPoint x="1140" y="1760" as="sourcePoint"/>
                        <mxPoint x="1140" y="1680" as="targetPoint"/>
                        <Array as="points">
                            <mxPoint x="1180" y="1760"/>
                            <mxPoint x="1180" y="1680"/>
                        </Array>
                    </mxGeometry>
                </mxCell>
                <mxCell id="3510" value="" style="ellipse;whiteSpace=wrap;html=1;fontSize=8;" parent="1" vertex="1">
                    <mxGeometry x="1040" y="1640" width="40" height="40" as="geometry"/>
                </mxCell>
                <mxCell id="3511" value="" style="endArrow=classic;html=1;rounded=0;fontSize=8;endSize=3;strokeWidth=1;jumpSize=6;" parent="1" edge="1">
                    <mxGeometry width="50" height="50" relative="1" as="geometry">
                        <mxPoint x="1060" y="1680" as="sourcePoint"/>
                        <mxPoint x="1140" y="1720" as="targetPoint"/>
                        <Array as="points">
                            <mxPoint x="1060" y="1720"/>
                        </Array>
                    </mxGeometry>
                </mxCell>
                <mxCell id="3512" value="" style="endArrow=classic;html=1;rounded=0;fontSize=8;endSize=3;strokeWidth=1;jumpSize=6;entryX=0.5;entryY=1;entryDx=0;entryDy=0;" parent="1" target="3514" edge="1">
                    <mxGeometry width="50" height="50" relative="1" as="geometry">
                        <mxPoint x="1139.89" y="1640" as="sourcePoint"/>
                        <mxPoint x="1139.89" y="1592" as="targetPoint"/>
                    </mxGeometry>
                </mxCell>
                <mxCell id="3513" value="" style="endArrow=classic;html=1;rounded=0;fontSize=8;endSize=3;strokeWidth=1;jumpSize=6;entryX=0.5;entryY=1;entryDx=0;entryDy=0;exitX=0.5;exitY=0;exitDx=0;exitDy=0;" parent="1" source="3506" target="3508" edge="1">
                    <mxGeometry width="50" height="50" relative="1" as="geometry">
                        <mxPoint x="1100" y="1750" as="sourcePoint"/>
                        <mxPoint x="1150" y="1700" as="targetPoint"/>
                    </mxGeometry>
                </mxCell>
                <mxCell id="3514" value="" style="rounded=0;whiteSpace=wrap;html=1;fontSize=8;" parent="1" vertex="1">
                    <mxGeometry x="1100" y="1575" width="80" height="10" as="geometry"/>
                </mxCell>
                <mxCell id="3518" style="edgeStyle=none;html=1;entryX=0.5;entryY=1;entryDx=0;entryDy=0;" parent="1" source="3516" target="2826" edge="1">
                    <mxGeometry relative="1" as="geometry"/>
                </mxCell>
                <mxCell id="3516" value="" style="verticalLabelPosition=bottom;verticalAlign=top;html=1;shape=mxgraph.flowchart.summing_function;" parent="1" vertex="1">
                    <mxGeometry x="430" y="570" width="20" height="20" as="geometry"/>
                </mxCell>
                <mxCell id="3520" value="" style="rounded=0;whiteSpace=wrap;html=1;fillColor=none;" parent="1" vertex="1">
                    <mxGeometry x="435" y="419.5" width="10" height="10" as="geometry"/>
                </mxCell>
                <mxCell id="3522" value="" style="endArrow=classic;html=1;rounded=0;fontSize=8;endSize=3;strokeWidth=1;jumpSize=6;exitX=0.5;exitY=0;exitDx=0;exitDy=0;entryX=0.5;entryY=1;entryDx=0;entryDy=0;" parent="1" target="3523" edge="1">
                    <mxGeometry width="50" height="50" relative="1" as="geometry">
                        <mxPoint x="440" y="419.5" as="sourcePoint"/>
                        <mxPoint x="440" y="393.5" as="targetPoint"/>
                    </mxGeometry>
                </mxCell>
                <mxCell id="3525" style="edgeStyle=none;html=1;entryX=0.5;entryY=1;entryDx=0;entryDy=0;entryPerimeter=0;" parent="1" source="3523" target="3524" edge="1">
                    <mxGeometry relative="1" as="geometry"/>
                </mxCell>
                <mxCell id="3523" value="" style="rounded=0;whiteSpace=wrap;html=1;fillColor=none;" parent="1" vertex="1">
                    <mxGeometry x="435" y="340.5" width="10" height="10" as="geometry"/>
                </mxCell>
                <mxCell id="3524" value="" style="verticalLabelPosition=bottom;verticalAlign=top;html=1;shape=mxgraph.flowchart.summing_function;" parent="1" vertex="1">
                    <mxGeometry x="430" y="255" width="20" height="20" as="geometry"/>
                </mxCell>
                <mxCell id="3529" style="edgeStyle=none;html=1;entryX=0.5;entryY=1;entryDx=0;entryDy=0;exitX=0.5;exitY=0;exitDx=0;exitDy=0;exitPerimeter=0;" parent="1" source="3524" target="2835" edge="1">
                    <mxGeometry relative="1" as="geometry">
                        <mxPoint x="440" y="195" as="targetPoint"/>
                        <mxPoint x="440" y="220" as="sourcePoint"/>
                    </mxGeometry>
                </mxCell>
                <mxCell id="3530" value="$$8\times8@512$$" style="text;html=1;align=center;verticalAlign=middle;resizable=0;points=[];autosize=1;strokeColor=none;fillColor=none;" parent="1" vertex="1">
                    <mxGeometry x="145" y="775" width="130" height="20" as="geometry"/>
                </mxCell>
                <mxCell id="3531" style="edgeStyle=none;html=1;entryX=1;entryY=0.5;entryDx=0;entryDy=0;entryPerimeter=0;" parent="1" source="3532" target="3545" edge="1">
                    <mxGeometry relative="1" as="geometry">
                        <mxPoint x="660" y="815" as="targetPoint"/>
                        <Array as="points">
                            <mxPoint x="680" y="1014"/>
                            <mxPoint x="680" y="815"/>
                        </Array>
                    </mxGeometry>
                </mxCell>
                <mxCell id="3532" value="" style="rounded=0;whiteSpace=wrap;html=1;fillColor=none;" parent="1" vertex="1">
                    <mxGeometry x="635" y="1008.5" width="10" height="10" as="geometry"/>
                </mxCell>
                <mxCell id="3533" value="" style="endArrow=classic;html=1;rounded=0;fontSize=8;endSize=3;strokeWidth=1;jumpSize=6;exitX=0.5;exitY=0;exitDx=0;exitDy=0;entryX=0.5;entryY=1;entryDx=0;entryDy=0;" parent="1" source="3532" target="3540" edge="1">
                    <mxGeometry width="50" height="50" relative="1" as="geometry">
                        <mxPoint x="590" y="1032.5" as="sourcePoint"/>
                        <mxPoint x="640" y="982.5" as="targetPoint"/>
                    </mxGeometry>
                </mxCell>
                <mxCell id="3534" value="" style="rounded=0;whiteSpace=wrap;html=1;fillColor=none;" parent="1" vertex="1">
                    <mxGeometry x="600" y="730" width="80" height="10" as="geometry"/>
                </mxCell>
                <mxCell id="3535" value="" style="endArrow=classic;html=1;rounded=0;fontSize=8;endSize=3;strokeWidth=1;jumpSize=6;exitX=0.5;exitY=0;exitDx=0;exitDy=0;entryX=0.498;entryY=1.109;entryDx=0;entryDy=0;entryPerimeter=0;" parent="1" edge="1">
                    <mxGeometry width="50" height="50" relative="1" as="geometry">
                        <mxPoint x="640" y="730" as="sourcePoint"/>
                        <mxPoint x="640" y="700" as="targetPoint"/>
                    </mxGeometry>
                </mxCell>
                <mxCell id="3536" value="" style="rounded=0;whiteSpace=wrap;html=1;fillColor=none;" parent="1" vertex="1">
                    <mxGeometry x="620" y="685" width="40" height="10" as="geometry"/>
                </mxCell>
                <mxCell id="3537" value="" style="rounded=0;whiteSpace=wrap;html=1;fillColor=none;" parent="1" vertex="1">
                    <mxGeometry x="560" y="640" width="160" height="10" as="geometry"/>
                </mxCell>
                <mxCell id="3538" value="" style="endArrow=classic;html=1;rounded=0;fontSize=8;endSize=3;strokeWidth=1;jumpSize=6;exitX=0.5;exitY=0;exitDx=0;exitDy=0;entryX=0.498;entryY=1.109;entryDx=0;entryDy=0;entryPerimeter=0;" parent="1" edge="1">
                    <mxGeometry width="50" height="50" relative="1" as="geometry">
                        <mxPoint x="640" y="685" as="sourcePoint"/>
                        <mxPoint x="640" y="655" as="targetPoint"/>
                    </mxGeometry>
                </mxCell>
                <mxCell id="3539" style="edgeStyle=none;html=1;entryX=0.5;entryY=1;entryDx=0;entryDy=0;" parent="1" target="3532" edge="1">
                    <mxGeometry relative="1" as="geometry">
                        <mxPoint x="640" y="1045" as="sourcePoint"/>
                    </mxGeometry>
                </mxCell>
                <mxCell id="3540" value="" style="rounded=0;whiteSpace=wrap;html=1;fillColor=none;" parent="1" vertex="1">
                    <mxGeometry x="635" y="929.5" width="10" height="10" as="geometry"/>
                </mxCell>
                <mxCell id="3541" value="" style="endArrow=classic;html=1;rounded=0;fontSize=8;endSize=3;strokeWidth=1;jumpSize=6;exitX=0.5;exitY=0;exitDx=0;exitDy=0;entryX=0.5;entryY=1;entryDx=0;entryDy=0;" parent="1" target="3543" edge="1">
                    <mxGeometry width="50" height="50" relative="1" as="geometry">
                        <mxPoint x="640" y="929.5" as="sourcePoint"/>
                        <mxPoint x="640" y="903.5" as="targetPoint"/>
                    </mxGeometry>
                </mxCell>
                <mxCell id="3542" style="edgeStyle=none;html=1;entryX=0.5;entryY=1;entryDx=0;entryDy=0;entryPerimeter=0;" parent="1" source="3543" target="3545" edge="1">
                    <mxGeometry relative="1" as="geometry"/>
                </mxCell>
                <mxCell id="3543" value="" style="rounded=0;whiteSpace=wrap;html=1;fillColor=none;" parent="1" vertex="1">
                    <mxGeometry x="635" y="850.5" width="10" height="10" as="geometry"/>
                </mxCell>
                <mxCell id="3544" style="edgeStyle=none;html=1;entryX=0.5;entryY=1;entryDx=0;entryDy=0;" parent="1" source="3545" target="3547" edge="1">
                    <mxGeometry relative="1" as="geometry"/>
                </mxCell>
                <mxCell id="3545" value="" style="verticalLabelPosition=bottom;verticalAlign=top;html=1;shape=mxgraph.flowchart.summing_function;" parent="1" vertex="1">
                    <mxGeometry x="630" y="805" width="20" height="20" as="geometry"/>
                </mxCell>
                <mxCell id="3546" style="edgeStyle=none;html=1;entryX=0.5;entryY=1;entryDx=0;entryDy=0;" parent="1" source="3547" target="3534" edge="1">
                    <mxGeometry relative="1" as="geometry">
                        <mxPoint x="640" y="745" as="targetPoint"/>
                    </mxGeometry>
                </mxCell>
                <mxCell id="3547" value="" style="rounded=0;whiteSpace=wrap;html=1;fillColor=none;" parent="1" vertex="1">
                    <mxGeometry x="635" y="770" width="10" height="10" as="geometry"/>
                </mxCell>
                <mxCell id="3548" style="edgeStyle=none;html=1;entryX=0.5;entryY=1;entryDx=0;entryDy=0;entryPerimeter=0;" parent="1" target="3549" edge="1">
                    <mxGeometry relative="1" as="geometry">
                        <mxPoint x="640" y="1091" as="sourcePoint"/>
                    </mxGeometry>
                </mxCell>
                <mxCell id="3549" value="" style="verticalLabelPosition=bottom;verticalAlign=top;html=1;shape=mxgraph.flowchart.summing_function;" parent="1" vertex="1">
                    <mxGeometry x="630" y="1047.5" width="20" height="20" as="geometry"/>
                </mxCell>
                <mxCell id="3550" value="" style="rounded=0;whiteSpace=wrap;html=1;fillColor=none;" parent="1" vertex="1">
                    <mxGeometry x="635" y="1091" width="10" height="10" as="geometry"/>
                </mxCell>
                <mxCell id="3551" value="&lt;font style=&quot;font-size: 8px&quot;&gt;Conv2d $$5\times5@64 $$&lt;/font&gt;" style="text;html=1;align=center;verticalAlign=middle;resizable=0;points=[];autosize=1;strokeColor=none;fillColor=none;" parent="1" vertex="1">
                    <mxGeometry x="155" y="964.5" width="120" height="20" as="geometry"/>
                </mxCell>
                <mxCell id="3552" value="$$8\times8@512$$" style="text;html=1;align=center;verticalAlign=middle;resizable=0;points=[];autosize=1;strokeColor=none;fillColor=none;" parent="1" vertex="1">
                    <mxGeometry x="145" y="929.5" width="130" height="20" as="geometry"/>
                </mxCell>
                <mxCell id="3559" style="edgeStyle=none;html=1;entryX=0.5;entryY=1;entryDx=0;entryDy=0;" edge="1" parent="1" source="3556" target="2796">
                    <mxGeometry relative="1" as="geometry">
                        <mxPoint x="440" y="1349.5" as="targetPoint"/>
                    </mxGeometry>
                </mxCell>
                <mxCell id="3556" value="" style="verticalLabelPosition=bottom;verticalAlign=top;html=1;shape=mxgraph.flowchart.summing_function;fontSize=8;" vertex="1" parent="1">
                    <mxGeometry x="430" y="1369.5" width="20" height="20" as="geometry"/>
                </mxCell>
                <mxCell id="3566" style="edgeStyle=none;html=1;entryX=0.5;entryY=1;entryDx=0;entryDy=0;" edge="1" parent="1" source="3561" target="3565">
                    <mxGeometry relative="1" as="geometry"/>
                </mxCell>
                <mxCell id="3561" value="" style="verticalLabelPosition=bottom;verticalAlign=top;html=1;shape=mxgraph.flowchart.summing_function;fontSize=8;" vertex="1" parent="1">
                    <mxGeometry x="430" y="1050.5" width="20" height="20" as="geometry"/>
                </mxCell>
                <mxCell id="3567" style="edgeStyle=none;html=1;entryX=0.5;entryY=1;entryDx=0;entryDy=0;" edge="1" parent="1" source="3565" target="2814">
                    <mxGeometry relative="1" as="geometry">
                        <mxPoint x="440" y="909.5" as="targetPoint"/>
                    </mxGeometry>
                </mxCell>
                <mxCell id="3565" value="" style="rounded=0;whiteSpace=wrap;html=1;fillColor=none;" vertex="1" parent="1">
                    <mxGeometry x="430" y="970.5" width="20" height="20" as="geometry"/>
                </mxCell>
                <mxCell id="3570" value="" style="endArrow=classic;html=1;rounded=0;entryX=0.5;entryY=1;entryDx=0;entryDy=0;" edge="1" parent="1" target="2820">
                    <mxGeometry width="50" height="50" relative="1" as="geometry">
                        <mxPoint x="440" y="814.5" as="sourcePoint"/>
                        <mxPoint x="490" y="764.5" as="targetPoint"/>
                    </mxGeometry>
                </mxCell>
                <mxCell id="3573" style="edgeStyle=none;rounded=0;html=1;entryX=0.5;entryY=1;entryDx=0;entryDy=0;entryPerimeter=0;" edge="1" parent="1" source="3571" target="3516">
                    <mxGeometry relative="1" as="geometry"/>
                </mxCell>
                <mxCell id="3571" value="" style="rounded=0;whiteSpace=wrap;html=1;fillColor=none;" vertex="1" parent="1">
                    <mxGeometry x="435" y="655" width="10" height="10" as="geometry"/>
                </mxCell>
                <mxCell id="3577" style="edgeStyle=none;rounded=0;html=1;entryX=0.48;entryY=1.14;entryDx=0;entryDy=0;entryPerimeter=0;" edge="1" parent="1" source="3574" target="3576">
                    <mxGeometry relative="1" as="geometry"/>
                </mxCell>
                <mxCell id="3574" value="" style="rounded=0;whiteSpace=wrap;html=1;fillColor=none;" vertex="1" parent="1">
                    <mxGeometry x="430" y="1770" width="20" height="20" as="geometry"/>
                </mxCell>
                <mxCell id="3578" style="edgeStyle=none;rounded=0;html=1;entryX=0.5;entryY=1;entryDx=0;entryDy=0;" edge="1" parent="1" source="3576" target="2779">
                    <mxGeometry relative="1" as="geometry"/>
                </mxCell>
                <mxCell id="3576" value="" style="verticalLabelPosition=bottom;verticalAlign=top;html=1;shape=mxgraph.flowchart.summing_function;fontSize=8;" vertex="1" parent="1">
                    <mxGeometry x="430" y="1690" width="20" height="20" as="geometry"/>
                </mxCell>
            </root>
        </mxGraphModel>
    </diagram>
</mxfile>